<svg width="22" height="24" viewBox="0 0 22 24" fill="none" xmlns="http://www.w3.org/2000/svg">
<path d="M20.2933 17.1701V20.1701C20.2943 20.4486 20.242 20.7243 20.1397 20.9794C20.0375 21.2346 19.8875 21.4637 19.6993 21.652C19.5112 21.8402 19.2891 21.9836 19.0473 22.0728C18.8055 22.162 18.5492 22.1952 18.2949 22.1701C15.4742 21.8357 12.7647 20.7842 10.3841 19.1001C8.16928 17.5648 6.2915 15.5163 4.88411 13.1001C3.33492 10.4913 2.37083 7.52109 2.06994 4.4301C2.04703 4.15356 2.07716 3.87486 2.1584 3.61172C2.23964 3.34859 2.37021 3.10679 2.54181 2.90172C2.7134 2.69665 2.92226 2.53281 3.15508 2.42062C3.3879 2.30843 3.63959 2.25036 3.89411 2.2501H6.64411C7.08897 2.24532 7.52025 2.41718 7.85756 2.73363C8.19486 3.05008 8.41518 3.48954 8.47744 3.9701C8.59351 4.93016 8.80877 5.87282 9.11911 6.7801C9.24244 7.13802 9.26913 7.52701 9.19602 7.90098C9.12291 8.27494 8.95307 8.61821 8.70661 8.8901L7.54244 10.1601C8.84737 12.6636 10.7475 14.7365 13.0424 16.1601L14.2066 14.8901C14.4558 14.6212 14.7705 14.4359 15.1133 14.3562C15.4561 14.2764 15.8127 14.3056 16.1408 14.4401C16.9724 14.7786 17.8365 15.0135 18.7166 15.1401C19.1619 15.2086 19.5686 15.4533 19.8593 15.8276C20.15 16.2019 20.3044 16.6797 20.2933 17.1701Z" stroke="#006B9C" stroke-width="1.5" stroke-linecap="round" stroke-linejoin="round"/>
</svg>
