<svg width="187" height="65" viewBox="0 0 187 65" fill="none" xmlns="http://www.w3.org/2000/svg">
<path d="M27.614 16.7993C27.4711 16.8476 27.4502 16.7956 27.4625 16.4149L27.4777 15.9755L28.3855 16.0304C28.8854 16.0617 29.5291 16.1488 29.815 16.2265C30.1009 16.3032 30.6888 16.3799 31.9033 16.4291L32.0415 16.9026C32.1163 17.163 32.1684 17.3874 32.1561 17.4006C32.1447 17.4139 31.9317 17.3827 31.6846 17.3296C31.4376 17.2766 31.0116 17.2378 30.738 17.2435C30.4644 17.2482 30.0498 17.1838 29.815 17.0995C29.5812 17.0152 29.0274 16.9007 28.5843 16.8448C28.1422 16.7889 27.7049 16.769 27.614 16.7993Z" fill="#3FAFEC"/>
<path d="M26.4998 20.9024C26.4988 20.838 26.5443 20.6457 26.602 20.4762C26.6626 20.2944 26.7696 20.1685 26.8633 20.1676C26.9504 20.1676 27.3622 20.2528 27.7787 20.3569C28.1953 20.462 28.8456 20.6969 29.2224 20.8787C29.6872 21.1041 29.9087 21.2641 29.9087 21.3758C29.9087 21.5084 30.0469 21.5643 30.595 21.6542C30.9728 21.7158 31.6013 21.8663 32.7014 22.212L32.725 22.658C32.7383 22.9032 32.7279 23.104 32.7014 23.104C32.6758 23.104 32.3454 23.0007 31.9677 22.8739C31.5909 22.747 30.8885 22.5652 30.4085 22.4714C29.8131 22.354 29.5253 22.2546 29.5026 22.157C29.4837 22.0794 29.1741 21.8597 28.8134 21.6684C28.4528 21.4771 27.9018 21.2546 27.5894 21.1732C27.277 21.0917 26.905 21.0236 26.7611 21.0226C26.6181 21.0217 26.5007 20.9677 26.4998 20.9024Z" fill="#3FAFEC"/>
<path d="M33.1273 24.9864C33.4142 24.9277 33.9841 24.8302 34.3949 24.7696C34.8048 24.709 35.1541 24.6616 35.1693 24.6635C35.1844 24.6654 35.2431 24.8482 35.3993 25.4713L34.9497 25.5224C34.7026 25.5499 34.1384 25.637 33.6953 25.7146C33.2533 25.7932 32.7847 25.8784 32.654 25.905C32.4192 25.9523 32.4183 25.9504 32.512 25.5233C32.6067 25.0963 32.6105 25.0925 33.1273 24.9864Z" fill="#3FAFEC"/>
<path d="M23.9211 25.8576C23.7782 25.851 23.7914 25.7989 24.0158 25.4703C24.2704 25.0991 24.2875 25.0906 24.7021 25.1493C24.9369 25.1815 25.4481 25.3141 25.8381 25.4419C26.2291 25.5707 26.8463 25.8254 27.2107 26.0082C27.5752 26.1919 27.8848 26.3585 27.8971 26.3803C27.9103 26.4011 27.8781 26.5034 27.8261 26.6076C27.7409 26.779 27.7749 26.8074 28.1811 26.8992C28.4291 26.9551 28.9507 27.1274 29.3407 27.2827C29.7317 27.438 30.3385 27.7335 30.6897 27.9389C31.1858 28.2287 31.3164 28.3499 31.2728 28.4777C31.2416 28.5696 31.1971 28.6861 31.1734 28.7381C31.1498 28.7902 31.3988 28.9342 31.7272 29.0573C32.0548 29.1804 32.5575 29.4218 32.8434 29.5942C33.1302 29.7665 33.471 30.0184 33.6007 30.1538C33.7313 30.2892 33.8695 30.3991 33.9083 30.3981C33.9481 30.3972 34.2671 30.5837 34.6183 30.8129C34.9705 31.042 35.44 31.3933 36.0677 31.9577L35.5413 32.7588L35.0491 32.2635C34.7774 31.9918 34.3088 31.6206 34.0077 31.4388C33.7058 31.257 33.2353 30.9265 32.9617 30.7049C32.689 30.4824 32.2631 30.1993 32.015 30.0752C31.7679 29.9502 31.3883 29.7911 31.1725 29.7201C30.8033 29.5989 30.7863 29.5771 30.8885 29.3697C30.9832 29.1775 30.9671 29.1245 30.7607 28.9645C30.631 28.8631 30.098 28.5686 29.5774 28.3101C29.0567 28.0516 28.3467 27.7657 28.0002 27.6738C27.4521 27.5299 27.3802 27.4854 27.4559 27.3414C27.5212 27.2164 27.4909 27.1435 27.3291 27.0384C27.2126 26.9636 26.797 26.7525 26.4061 26.5716C26.0161 26.3898 25.4405 26.1758 25.1281 26.0953C24.8157 26.0148 24.4541 25.9296 24.3234 25.9068C24.1937 25.8832 24.0129 25.8614 23.9211 25.8576Z" fill="#3FAFEC"/>
<path d="M35.3473 27.4645C35.4486 27.2591 35.5981 27.0725 35.6786 27.0498C35.76 27.0271 36.1131 27.0034 37.1033 26.9863L37.2529 27.7912L36.2551 27.8443C35.706 27.8727 35.2365 27.8831 35.21 27.867C35.1844 27.8509 35.246 27.6691 35.3473 27.4645Z" fill="#3FAFEC"/>
<path d="M19.2342 32.2418C19.4292 31.6689 19.5892 31.1045 19.5901 30.9871C19.5901 30.8545 19.6479 30.774 19.7435 30.774C19.8637 30.774 19.9177 30.9341 19.9915 31.5079C20.0625 32.0571 20.0568 32.3383 19.9688 32.6205C19.9044 32.8289 19.6545 33.3828 19.4141 33.8515C19.1736 34.3203 18.74 35.002 18.4494 35.3666C18.1597 35.7312 17.712 36.2056 17.4545 36.4196C17.1979 36.6345 16.7738 36.9413 16.5135 37.1014C16.2532 37.2623 15.7846 37.482 15.4722 37.5909C15.1598 37.6989 14.5956 37.8182 13.5306 37.9233L13.5315 37.0237L14.0285 37.0266C14.3021 37.0275 14.8029 36.9442 15.1408 36.841C15.4797 36.7387 16.0118 36.4878 16.3242 36.2851C16.6366 36.0815 17.1515 35.6431 17.4677 35.3098C17.7839 34.9765 18.2307 34.3846 18.4608 33.9936C18.6908 33.6034 19.0392 32.8147 19.2342 32.2418Z" fill="#3FAFEC"/>
<path d="M14.9686 47.5819L15.5981 46.9427C15.9446 46.5914 16.2712 46.3036 16.3232 46.3026C16.3762 46.3007 16.93 46.6331 17.5548 47.0403C18.1796 47.4465 18.989 48.0592 19.3535 48.4001C19.7179 48.7409 20.0758 49.1652 20.1487 49.3432C20.2651 49.6273 20.2623 49.703 20.125 49.9729C20.0398 50.1424 19.8628 50.4511 19.4955 51.0382L18.9038 50.4123C18.5791 50.0685 18.014 49.5591 17.6495 49.2807C17.285 49.0023 16.5334 48.5061 14.9686 47.5819Z" fill="#3FAFEC"/>
<path d="M30.5023 16.0759C30.542 15.9055 30.5752 15.5958 30.5752 15.3875C30.5752 15.1082 30.5998 15.0457 30.667 15.1508C30.7172 15.2284 30.7598 15.5381 30.7598 15.8373C30.7617 16.2928 30.7342 16.3818 30.596 16.3837C30.4568 16.3856 30.4417 16.3363 30.5023 16.0759Z" fill="#000204"/>
<path d="M30.1208 20.6628C30.3271 20.0037 30.3915 19.5757 30.4379 18.536C30.4909 17.3391 30.5108 17.234 30.6765 17.234C30.8412 17.234 30.8705 17.3751 31.0049 18.8201C31.1185 20.0426 31.1299 20.553 30.951 21.6845L30.454 21.6239C30.1804 21.5917 29.9362 21.5472 29.9097 21.5255C29.8841 21.5046 29.9788 21.1164 30.1208 20.6628Z" fill="#000204"/>
<path d="M26.8425 20.0037C26.8737 19.9128 26.9409 19.7206 26.9921 19.5776C27.0432 19.4346 27.1189 19.3172 27.1615 19.3172C27.2041 19.3172 27.2164 19.4773 27.189 19.6723C27.1615 19.8674 27.1236 20.0596 27.1047 20.0984C27.0858 20.1373 27.0063 20.1695 26.9277 20.1695C26.8337 20.1688 26.8053 20.1136 26.8425 20.0037Z" fill="#000204"/>
<path d="M16.9016 22.3C17.0275 21.6751 17.1837 21.0359 17.2481 20.8796L17.3664 20.5956L17.3977 20.927C17.4147 21.1098 17.3835 22.0463 17.3276 23.0102C17.2718 23.9742 17.1639 25.1238 17.0862 25.5669C17.0096 26.0101 16.8448 26.6701 16.7199 27.0346C16.5949 27.3992 16.1926 28.4219 15.8253 29.3073C15.4589 30.1926 15.0386 31.3858 14.8928 31.9586C14.6533 32.8999 14.6278 33.1593 14.6249 34.6574C14.623 35.5683 14.6429 36.4632 14.7158 36.9773L13.5325 37.0247L13.5864 36.4329C13.6167 36.1071 13.7275 35.3089 13.8335 34.6574C13.9395 34.0068 14.1431 33.0694 14.2851 32.5741C14.4271 32.0789 14.8673 30.6737 15.262 29.4493C15.8215 27.7155 16.0563 26.8055 16.3261 25.3302C16.5163 24.2886 16.7748 22.925 16.9016 22.3Z" fill="#000204"/>
<path d="M25.4168 23.247C25.5825 22.8824 25.8712 22.2158 26.0596 21.766C26.3445 21.0832 26.4307 20.9564 26.5812 20.9961C26.6806 21.0226 26.7677 21.0813 26.7734 21.1277C26.78 21.1732 26.5102 21.7546 26.1751 22.4184C25.839 23.0822 25.3799 23.9448 25.1546 24.3359C24.8592 24.8491 24.687 25.0527 24.5345 25.0698C24.3405 25.0916 24.3556 25.0461 24.7201 24.5016C24.9378 24.1759 25.2521 23.6115 25.4168 23.247Z" fill="#000204"/>
<path d="M29.2423 23.5424C29.2394 23.2621 29.3038 22.8786 29.3852 22.6902C29.4808 22.4686 29.5963 22.3474 29.7118 22.3474C29.8832 22.3474 29.8907 22.4354 29.869 24.1229C29.8472 25.8557 29.8406 25.9097 29.5897 26.3718C29.4477 26.6322 29.2811 26.9172 29.2186 27.0053C29.1116 27.1549 29.0719 27.1549 28.5701 27.0053C28.2757 26.9172 28.0078 26.8235 27.9756 26.7979C27.9425 26.7723 28.1375 26.3888 28.4083 25.9457C28.68 25.5025 28.9791 24.8955 29.0738 24.5963C29.1694 24.2971 29.2442 23.8227 29.2423 23.5424Z" fill="#000204"/>
<path d="M32.6039 24.7384C32.6285 24.5433 32.6739 23.9998 32.7061 23.531C32.7373 23.0623 32.7989 22.7214 32.8415 22.7735C32.8831 22.8256 33.0185 23.3246 33.1416 23.8833C33.2646 24.441 33.3432 24.9154 33.3176 24.9363C33.2911 24.9562 33.1103 25.0007 32.5603 25.0935L32.6039 24.7384Z" fill="#000204"/>
<path d="M35.4987 25.8036C35.3908 25.4912 35.3094 25.2203 35.317 25.2014C35.3255 25.1825 35.4429 25.1957 35.5792 25.2298C35.7146 25.2648 36.0147 25.4078 36.2447 25.548C36.6063 25.7686 36.6868 25.8803 36.843 26.3718C36.9424 26.6843 37.0096 26.9456 36.9926 26.9532C36.9755 26.9598 36.6546 26.9816 35.5953 27.0346L35.6455 26.7032C35.6767 26.4949 35.6227 26.1606 35.4987 25.8036Z" fill="#000204"/>
<path d="M32.2716 26.3481C32.3511 26.0347 32.4088 25.9807 32.7686 25.8841C32.992 25.8245 33.2589 25.7819 33.3612 25.7894C33.5089 25.8008 33.5713 25.9201 33.6651 26.3718C33.7294 26.6843 33.7843 27.1 33.7862 27.2951C33.7891 27.4901 33.6584 27.9588 33.4966 28.3367C33.3347 28.7145 33.1425 29.1614 32.939 29.6387L32.6313 29.4597C32.4619 29.3612 32.0557 29.1804 31.7282 29.0573C31.4016 28.9342 31.1346 28.8234 31.1365 28.8101C31.1384 28.7969 31.2303 28.6056 31.3401 28.384C31.4499 28.1624 31.7055 27.7581 31.9081 27.4844C32.1106 27.2108 32.2545 26.9229 32.229 26.8453C32.2025 26.7676 32.2214 26.5432 32.2716 26.3481Z" fill="#000204"/>
<path d="M22.5219 27.8869C23.054 27.0015 23.551 26.1815 23.6248 26.0641C23.6986 25.9466 23.8331 25.8519 23.9239 25.8529C24.0139 25.8529 24.1398 25.8851 24.2032 25.9239C24.2922 25.9769 24.278 26.1038 24.1417 26.4665C24.0432 26.7269 23.9192 27.1956 23.8662 27.5081C23.8132 27.8206 23.745 28.4067 23.6617 29.544L23.2121 29.5402C22.8022 29.5364 22.7274 29.5724 22.379 29.9426C22.1679 30.1661 21.7788 30.668 21.5138 31.0591C21.2496 31.4492 20.9316 31.8687 20.8085 31.9908C20.6409 32.1566 20.5188 32.1982 20.3247 32.1566C20.179 32.1253 20.0521 32.0278 20.036 31.935C20.0209 31.8441 20.356 31.2579 20.7801 30.633C21.2051 30.008 21.989 28.7723 22.5219 27.8869Z" fill="#000204"/>
<path d="M26.745 28.9285C27.0366 28.2514 27.295 27.6653 27.3187 27.6265C27.3433 27.5877 27.4133 27.5555 27.4768 27.5545C27.5392 27.5536 27.8138 27.618 28.0873 27.6965C28.36 27.7751 28.5843 27.8613 28.5843 27.8869C28.5843 27.9124 28.2114 28.491 27.756 29.1719C27.152 30.0724 26.8889 30.3924 26.7857 30.3498C26.7071 30.3176 26.5471 30.2722 26.4307 30.2494C26.3133 30.2258 26.2167 30.1964 26.2167 30.1832C26.2158 30.1699 26.4534 29.6055 26.745 28.9285Z" fill="#000204"/>
<path d="M34.5521 29.1416C34.9639 28.3092 35.1835 27.9636 35.3331 27.9181C35.4486 27.8831 35.9257 27.8623 37.2463 27.8869L37.3286 28.455C37.375 28.7675 37.3854 29.2145 37.3523 29.4493C37.3125 29.7343 37.0882 30.2135 36.0629 31.9113L35.5659 31.4984C35.2924 31.2721 34.8238 30.9312 34.5246 30.7409C34.2245 30.5515 33.9803 30.3744 33.9803 30.3489C33.9803 30.3233 34.2378 29.7798 34.5521 29.1416Z" fill="#000204"/>
<path d="M29.744 31.6746L30.2647 30.6481C30.7607 29.669 30.7967 29.6235 31.0333 29.6841C31.1706 29.7182 31.5322 29.8612 31.838 30.0004C32.1438 30.1396 32.4316 30.3072 32.477 30.3726C32.531 30.4502 32.3719 30.8659 31.4716 32.6575L29.744 31.6746Z" fill="#000204"/>
<path d="M32.4893 33.2692C32.4761 33.2512 32.7061 32.7702 32.9996 32.1992L33.5344 31.1613L33.9188 31.3706C34.1308 31.4861 34.5824 31.8393 35.5423 32.7342L34.2643 34.5627L33.862 34.2464C33.6404 34.0722 33.2466 33.7881 32.9863 33.6148C32.726 33.4425 32.5016 33.2862 32.4893 33.2692Z" fill="#000204"/>
<path d="M13.5334 38.09C13.5325 37.8996 13.5845 37.8741 14.0285 37.8476C14.3021 37.8305 14.6221 37.8097 14.7385 37.8002C14.8976 37.787 14.9856 37.8608 15.0822 38.09C15.1541 38.2595 15.3463 38.5786 15.5082 38.8002C15.671 39.0217 16.0184 39.3409 16.2806 39.5104C16.5429 39.6799 16.7558 39.8285 16.754 39.8418C16.7521 39.855 16.5268 39.9715 16.2532 40.1003C15.9805 40.2291 15.5224 40.3815 15.2355 40.4383C14.8673 40.5122 14.6467 40.5131 14.4782 40.4421C14.3485 40.3863 14.1478 40.1808 14.0323 39.9848C13.9168 39.7887 13.7578 39.3304 13.6792 38.9659C13.5997 38.6013 13.5344 38.2074 13.5334 38.09Z" fill="#000204"/>
<path d="M5.38175 50.1765C5.37134 50.1443 6.37669 49.1756 7.61776 48.0222L9.8727 45.9258H10.3536C10.6177 45.9258 11.1166 45.9996 11.4612 46.0915C11.8058 46.1824 12.1257 46.2903 12.1712 46.331C12.2166 46.3718 11.1573 47.4797 7.38204 51.1812L6.39089 50.7077C5.84656 50.4473 5.39216 50.2087 5.38175 50.1765Z" fill="#000204"/>
<path d="M0 55.1582L0.536755 54.6696C0.832112 54.4007 1.10286 54.2094 1.13788 54.2435C1.17291 54.2776 1.22308 54.7113 1.24959 55.2056C1.27515 55.7008 1.27042 56.2084 1.23728 56.3334C1.18238 56.5455 1.13788 56.5133 0 55.1582Z" fill="#000204"/>
<path fill-rule="evenodd" clip-rule="evenodd" d="M30.7569 0.0132569C31.1981 0.00473461 31.4281 0.0331423 31.3723 0.0890107C31.323 0.138251 31.1763 0.197907 31.0457 0.22158C30.916 0.2462 30.5742 0.358884 30.2883 0.473461C30.0024 0.588039 29.5367 0.83708 29.2546 1.02741C28.9715 1.21774 28.5029 1.63439 28.2133 1.95255C27.9226 2.27167 27.5042 2.8474 27.2836 3.2309C27.0621 3.61535 26.7762 4.22801 26.6475 4.59258C26.5187 4.95714 26.3483 5.68154 26.2688 6.20234C26.1893 6.72315 26.124 7.36232 26.124 7.62273C26.124 7.88313 26.212 8.45791 26.3181 8.90107C26.425 9.34423 26.6399 10.026 26.7971 10.4162C26.9533 10.8063 27.2676 11.4246 27.4947 11.7892C27.7219 12.1538 28.059 12.6007 28.2445 12.7835C28.484 13.0192 28.5541 13.149 28.4878 13.2332C28.4158 13.3251 28.3373 13.309 28.1347 13.1575C27.9917 13.0505 27.704 12.9189 27.4957 12.8658C27.2022 12.791 27.0318 12.8014 26.7384 12.9132C26.5301 12.9927 26.1694 13.2617 25.9375 13.5126C25.7056 13.7626 25.3562 14.308 25.1622 14.7246C24.9672 15.1413 24.6813 15.9727 24.527 16.5711C24.3717 17.1696 24.1777 18.1071 24.0962 18.6544C24.0148 19.2008 23.9003 20.3304 23.8416 21.1637C23.782 21.997 23.7554 23.3606 23.8302 25.709L22.9281 27.224C22.432 28.0573 21.9719 28.8035 21.9066 28.8811C21.8072 28.9986 21.7694 28.8774 21.6832 28.171C21.6264 27.7022 21.5128 26.5725 21.4305 25.6616C21.3377 24.6446 21.279 22.9989 21.2771 21.4005C21.2752 19.6666 21.3254 18.3059 21.4267 17.3287C21.51 16.521 21.6633 15.3392 21.7684 14.701C21.8725 14.0627 22.0647 13.0827 22.1963 12.5231C22.3279 11.9634 22.5664 11.079 22.7274 10.5582C22.8874 10.0374 23.1884 9.18515 23.3957 8.66434C23.603 8.14354 23.959 7.3557 24.1862 6.91254C24.4143 6.46938 24.5809 6.09724 24.5573 6.08398C24.5336 6.07072 24.3272 6.34817 24.0991 6.69948C23.8709 7.05079 23.5784 7.55171 23.4487 7.81211C23.32 8.07252 23.0625 8.66908 22.8779 9.1378C22.6942 9.60653 22.3904 10.5222 22.2039 11.1737C22.0174 11.8242 21.7618 12.8687 21.6359 13.4936C21.51 14.1186 21.3386 15.0987 21.2572 15.6716C21.1749 16.2445 21.065 17.0967 21.0139 17.5654C20.9628 18.0341 20.8776 19.3769 20.8236 20.5482C20.7583 21.9857 20.7583 23.3871 20.8218 24.8567C20.8738 26.0546 20.9855 27.6956 21.2222 29.9701L20.9988 30.3243C20.8748 30.5184 20.7527 30.6793 20.7271 30.6803C20.7015 30.6812 20.6031 30.0752 20.5094 29.3319C20.4156 28.5895 20.3134 27.5772 20.2803 27.082C20.2339 26.3671 20.2575 26.0565 20.3939 25.5669C20.5094 25.155 20.5671 24.6228 20.569 23.9571C20.5699 23.1987 20.5198 22.783 20.3541 22.2053C20.16 21.5283 20.143 21.3266 20.1989 20.3115C20.2339 19.6865 20.3267 18.5152 20.4062 17.7075C20.4866 16.8997 20.6533 15.6858 20.7773 15.0087C20.9022 14.3317 21.1578 13.2664 21.3472 12.6414C21.5355 12.0164 21.9596 10.8233 22.2891 9.99004C22.6195 9.15674 23.2272 7.72878 23.64 6.81784C24.0536 5.90596 24.5999 4.73461 24.8545 4.21381C25.1082 3.693 25.5058 3.01121 25.7378 2.69873C25.9697 2.38625 26.3749 1.92415 26.638 1.67132C26.9012 1.41944 27.3944 1.05108 27.7324 0.853177C28.0713 0.655271 28.6326 0.410964 28.981 0.309644C29.3294 0.20927 29.7128 0.104162 29.833 0.0757538C29.9532 0.0482931 30.3688 0.0198854 30.7569 0.0132569ZM33.5553 0C33.6329 0 33.9197 0.08617 34.1933 0.192225C34.4669 0.297334 34.9355 0.574782 35.2346 0.807725C35.6777 1.15241 35.7761 1.27929 35.7648 1.4914C35.7572 1.63439 35.8036 2.26315 35.8679 2.88811C35.9352 3.53865 35.9598 4.40887 35.9247 4.924C35.8926 5.41829 35.8216 6.24969 35.7676 6.7705C35.7146 7.29131 35.5896 8.18615 35.4902 8.75904C35.3908 9.33192 35.1636 10.3338 34.9847 10.9843C34.8048 11.6358 34.4849 12.5941 34.2719 13.1149C33.9936 13.7957 33.7985 14.1319 33.578 14.3118C33.3839 14.4699 33.0602 14.6006 32.7023 14.6659C32.3899 14.7237 31.9743 14.7701 31.7793 14.771C31.5559 14.772 31.3978 14.719 31.3533 14.6281C31.3069 14.5353 31.3581 14.4103 31.4982 14.273C31.6572 14.1167 31.8125 13.666 32.0927 12.5467C32.3009 11.7134 32.5736 10.4777 32.6995 9.80065C32.8254 9.1236 33.0138 7.90965 33.1179 7.10192C33.222 6.2942 33.3328 5.31413 33.3631 4.924C33.3943 4.53387 33.4379 4.08597 33.4596 3.92973C33.4814 3.77349 33.5287 2.96387 33.5657 2.13058C33.6016 1.29255 33.5941 0.552056 33.5486 0.473461C33.5022 0.394867 33.454 0.256616 33.4398 0.165711C33.4246 0.0700723 33.4738 0 33.5553 0V0ZM132.385 8.38784C133.114 8.41246 134.158 8.49863 134.705 8.58007C135.252 8.6615 136.167 8.8471 136.74 8.99387C137.313 9.1397 138.027 9.34897 138.87 9.65861L138.873 11.4814C138.874 12.4842 138.855 13.3251 138.83 13.3516C138.805 13.3781 138.282 13.2332 137.668 13.0306C137.053 12.8289 136.061 12.559 135.462 12.4331C134.674 12.2664 133.942 12.1878 132.811 12.1509C131.896 12.1206 131.034 12.1395 130.729 12.1973C130.442 12.2503 129.974 12.381 129.687 12.4871C129.401 12.5931 128.975 12.8441 128.741 13.0467C128.474 13.2768 128.231 13.6063 128.091 13.9273C127.9 14.3648 127.873 14.5599 127.902 15.253C127.931 15.9575 127.974 16.128 128.222 16.5314C128.405 16.8297 128.711 17.1346 129.074 17.3789C129.385 17.5881 129.938 17.8533 130.303 17.9669C130.667 18.0815 131.732 18.3504 132.669 18.5663C133.607 18.7813 134.779 19.0852 135.273 19.2415C135.767 19.3987 136.492 19.6913 136.882 19.8939C137.273 20.0956 137.805 20.4365 138.065 20.6524C138.326 20.8673 138.703 21.2622 138.904 21.5292C139.105 21.7972 139.356 22.1864 139.46 22.3947C139.565 22.603 139.732 23.0936 139.832 23.4837C139.961 23.9874 140.013 24.5234 140.014 25.3302C140.014 25.9552 139.973 26.6795 139.922 26.94C139.872 27.2004 139.759 27.6265 139.672 27.8869C139.585 28.1473 139.38 28.616 139.217 28.9285C139.039 29.2694 138.616 29.8016 138.161 30.258C137.573 30.8479 137.211 31.1168 136.551 31.4558C136.082 31.6954 135.358 31.9984 134.941 32.1281C134.525 32.2588 133.758 32.4416 133.237 32.5363C132.525 32.665 131.788 32.7077 130.255 32.7114C128.694 32.7152 127.978 32.6755 127.179 32.541C126.606 32.4444 125.776 32.2607 125.333 32.1329C124.891 32.006 124.239 31.7645 123.244 31.2958L123.247 29.473C123.25 27.7846 123.262 27.653 123.416 27.6918C123.507 27.7145 124.135 27.9257 124.812 28.1615C125.489 28.3963 126.554 28.6813 127.179 28.794C128.029 28.9484 128.72 29.0023 129.924 29.0099C131.179 29.0175 131.7 28.9815 132.291 28.8452C132.707 28.7486 133.304 28.5554 133.616 28.4153C133.928 28.2751 134.369 27.992 134.594 27.7865C134.82 27.582 135.107 27.2004 135.231 26.94C135.356 26.6795 135.486 26.2317 135.52 25.9457C135.555 25.6512 135.535 25.2194 135.474 24.9514C135.411 24.6721 135.238 24.3227 135.052 24.0992C134.88 23.8909 134.549 23.6087 134.319 23.4714C134.088 23.335 133.602 23.1163 133.237 22.9865C132.873 22.8568 131.936 22.6135 131.155 22.4468C130.374 22.2801 129.501 22.0794 129.214 22.0018C128.927 21.9241 128.353 21.7518 127.936 21.6182C127.52 21.4857 126.838 21.2035 126.421 20.9904C125.892 20.7215 125.463 20.4033 124.994 19.9375C124.545 19.4905 124.224 19.0663 124.025 18.6544C123.862 18.3163 123.66 17.7832 123.579 17.4707C123.479 17.0938 123.43 16.4888 123.43 15.6716C123.43 14.7426 123.477 14.254 123.623 13.683C123.73 13.2664 123.967 12.6272 124.15 12.2626C124.333 11.8981 124.668 11.3659 124.894 11.079C125.119 10.7921 125.576 10.3489 125.909 10.0942C126.243 9.83853 126.857 9.46923 127.273 9.27321C127.69 9.07625 128.393 8.82437 128.835 8.71169C129.278 8.59995 129.96 8.47117 130.35 8.42572C130.741 8.38121 131.656 8.36417 132.385 8.38784ZM176.074 8.385C176.725 8.40678 177.64 8.492 178.109 8.57344C178.578 8.65487 179.281 8.82911 179.671 8.95978C180.062 9.09046 180.679 9.34139 181.044 9.51847C181.408 9.69459 181.962 10.008 182.274 10.2135C182.587 10.4199 183.136 10.8584 183.495 11.1888C183.853 11.5193 184.386 12.1092 184.679 12.4994C184.971 12.8905 185.388 13.5505 185.603 13.9671C185.819 14.3838 186.129 15.1082 186.293 15.5769C186.457 16.0456 186.682 16.8552 186.795 17.376C186.973 18.1961 187 18.6212 187 20.5482C187 22.4781 186.973 22.8994 186.795 23.7204C186.681 24.2412 186.476 25.0082 186.336 25.4249C186.197 25.8415 185.913 26.5233 185.705 26.94C185.496 27.3566 185.153 27.9532 184.943 28.2656C184.732 28.5781 184.258 29.1463 183.89 29.5288C183.522 29.9104 182.945 30.4294 182.606 30.6822C182.268 30.9341 181.543 31.3545 180.996 31.6159C180.449 31.8782 179.597 32.2001 179.103 32.3317C178.609 32.4634 177.778 32.6196 177.257 32.6802C176.72 32.7417 175.758 32.7664 175.032 32.737C174.33 32.7086 173.393 32.613 172.95 32.5249C172.508 32.4368 171.826 32.2579 171.435 32.1262C171.045 31.9946 170.469 31.7598 170.157 31.6026C169.845 31.4464 169.291 31.1272 168.926 30.8924C168.562 30.6576 167.918 30.1197 167.495 29.6974C167.073 29.2741 166.493 28.5668 166.206 28.1236C165.919 27.6804 165.598 27.1483 165.493 26.94C165.388 26.7316 165.146 26.1133 164.957 25.5669C164.768 25.0205 164.52 24.1039 164.406 23.531C164.236 22.6712 164.2 22.1599 164.199 20.5956C164.199 19.1676 164.241 18.4688 164.372 17.7548C164.467 17.234 164.692 16.3609 164.871 15.8136C165.05 15.2663 165.418 14.398 165.689 13.8828C165.96 13.3677 166.461 12.6007 166.804 12.1784C167.147 11.756 167.769 11.133 168.187 10.7949C168.605 10.4569 169.368 9.95973 169.883 9.69175C170.398 9.42283 171.161 9.09709 171.577 8.96831C171.994 8.83858 172.59 8.67949 172.902 8.6151C173.215 8.55071 173.79 8.4636 174.18 8.42193C174.571 8.38027 175.423 8.36417 176.074 8.385ZM172.5 12.7816C172.013 13.0192 171.5 13.3668 171.138 13.7067C170.818 14.0059 170.383 14.5069 170.172 14.8193C169.96 15.1318 169.653 15.7076 169.489 16.0977C169.325 16.4888 169.121 17.0853 169.037 17.4234C168.953 17.7614 168.841 18.3372 168.788 18.7017C168.736 19.0663 168.693 19.8977 168.693 20.5482C168.692 21.1997 168.756 22.158 168.836 22.6788C168.915 23.1996 169.088 23.9458 169.221 24.3359C169.353 24.727 169.616 25.3444 169.805 25.709C170.041 26.1644 170.401 26.6275 170.957 27.1871C171.589 27.8234 171.922 28.0763 172.476 28.3405C172.867 28.526 173.464 28.7524 173.802 28.8433C174.227 28.9578 174.783 29.0099 175.6 29.0128C176.429 29.0156 176.968 28.9673 177.399 28.8537C177.738 28.7637 178.366 28.5204 178.795 28.312C179.391 28.0242 179.739 27.7695 180.263 27.243C180.665 26.8377 181.114 26.2591 181.346 25.8463C181.564 25.458 181.849 24.8217 181.98 24.4306C182.111 24.0405 182.284 23.3369 182.365 22.8682C182.456 22.3426 182.513 21.4535 182.513 20.5482C182.513 19.6799 182.456 18.7519 182.373 18.2756C182.296 17.8324 182.132 17.1724 182.009 16.8079C181.885 16.4433 181.629 15.8468 181.438 15.4822C181.249 15.1176 180.933 14.6243 180.737 14.3847C180.541 14.1461 180.147 13.7512 179.86 13.5079C179.573 13.2645 179.084 12.9397 178.772 12.7863C178.459 12.6329 177.863 12.4198 177.446 12.3128C176.882 12.168 176.412 12.1206 175.6 12.1272C175.002 12.132 174.235 12.1954 173.896 12.2683C173.558 12.3403 172.93 12.5713 172.5 12.7816ZM144.738 8.80638H160.075V12.4994H149.094V18.465H158.466V22.158H149.094V28.6918H160.643V32.3848L144.787 32.3374L144.738 8.80638ZM22.7624 29.5194L23.5671 29.5733C24.0092 29.6036 24.6907 29.7116 25.0817 29.8129C25.4717 29.9142 26.2177 30.1557 26.7384 30.3489C27.259 30.542 28.1962 30.9435 28.821 31.2409C29.4458 31.5392 30.4256 32.0524 30.9983 32.3819C31.5711 32.7114 32.4656 33.2692 32.9863 33.6214C33.507 33.9737 34.0078 34.3515 34.0986 34.4595C34.2586 34.6517 34.2501 34.6801 33.8146 35.3799C33.5676 35.7776 33.3328 36.1185 33.294 36.1374C33.2552 36.1573 32.957 35.9651 32.6313 35.7104C32.3057 35.4566 31.6137 34.9699 31.093 34.629C30.5723 34.2871 29.6134 33.736 28.963 33.4027C28.3117 33.0694 27.2259 32.5798 26.549 32.3137C25.8722 32.0477 24.8176 31.6774 24.2061 31.4918C23.5945 31.3062 23.0189 31.1528 22.9281 31.1509C22.8372 31.149 22.6924 31.2238 22.6062 31.3166C22.521 31.4094 22.2058 31.9331 21.9066 32.4795C21.6065 33.0258 21.2828 33.5911 21.1862 33.7341C21.0196 33.9813 21.0187 34.0248 21.1635 34.5864C21.2904 35.0769 21.2979 35.2871 21.2108 35.8174C21.1531 36.1687 20.9893 36.7444 20.8473 37.0957C20.7053 37.447 20.392 38.0332 20.1515 38.3977C19.9101 38.7623 19.4188 39.3418 19.06 39.6855C18.7012 40.0293 18.1522 40.4734 17.8398 40.6713C17.5274 40.8701 16.9944 41.1372 16.6565 41.265C16.2267 41.4279 15.812 41.5055 15.2838 41.5216C14.552 41.5443 14.5161 41.5567 14.2425 41.8691C14.0276 42.1134 13.8951 42.1864 13.4378 42.1381L14.2425 41.0141L14.8105 40.9658C15.1929 40.9326 15.5943 40.8105 16.0411 40.5898C16.4056 40.409 16.9272 40.0662 17.2008 39.8266C17.4744 39.588 17.6987 39.339 17.7006 39.2736C17.7025 39.2083 17.9184 38.9204 18.1815 38.6344C18.4438 38.3485 18.7722 37.9877 18.9123 37.8343C19.0515 37.68 19.1225 37.5786 19.0704 37.6089C19.0184 37.6392 19.132 37.3599 19.3241 36.9887C19.5154 36.6185 19.7852 35.931 19.9224 35.4623C20.0928 34.8799 20.178 34.3553 20.1894 33.8051C20.1989 33.362 20.1742 32.7976 20.0644 32.1007L20.3248 32.1565C20.5188 32.1982 20.6409 32.1565 20.8085 31.9908C20.9316 31.8687 21.2496 31.4492 21.5147 31.0591C21.7798 30.668 22.1688 30.1623 22.379 29.9341L22.7624 29.5194ZM22.9309 31.3441C23.0464 31.3441 23.6949 31.5193 24.3717 31.7333C25.0486 31.9463 26.018 32.2872 26.5254 32.4899C27.0328 32.6925 28.0126 33.1413 28.7027 33.4879C29.3928 33.8345 29.9144 34.1337 29.8623 34.1536C29.8103 34.1725 28.1385 33.6555 26.1467 33.0031C24.1549 32.3507 22.522 31.7929 22.5172 31.7636C22.5125 31.7342 22.557 31.6272 22.6147 31.5268C22.6734 31.4255 22.8154 31.3431 22.9309 31.3441ZM21.7883 33.1423C21.8385 33.1423 21.9237 33.451 21.9786 33.8288C22.0325 34.2066 22.0534 34.9206 22.0231 35.4149C21.9937 35.9102 21.8782 36.6345 21.7665 37.0247C21.6558 37.4158 21.4276 38.0332 21.2601 38.3977C21.0925 38.7623 20.7356 39.3806 20.4677 39.7708C20.1998 40.1618 19.6271 40.8228 19.1945 41.2404C18.7618 41.658 18.2686 42.1049 17.7877 42.4695L18.8073 43.1494C19.3686 43.5234 20.2329 44.1664 20.7271 44.5783C21.2222 44.9911 21.8962 45.6227 22.2257 45.9826C22.5551 46.3415 22.9461 46.8916 23.0947 47.2041C23.2433 47.5166 23.391 47.9001 23.4222 48.0563C23.4696 48.2959 23.4374 48.3669 23.2149 48.5042C23.0701 48.5942 22.9186 48.6368 22.8779 48.5989C22.8381 48.561 22.805 48.3811 22.806 48.1984C22.8078 48.0042 22.6961 47.6709 22.5371 47.3935C22.3875 47.1331 22.0581 46.6909 21.8044 46.4096C21.5507 46.1293 21.0868 45.6975 20.7744 45.4495C20.462 45.2023 19.8448 44.7752 19.4018 44.5006C18.9597 44.226 18.0651 43.7355 17.4138 43.4107C16.7634 43.0859 15.9001 42.7091 15.4968 42.5736C15.0935 42.4382 14.7101 42.3274 14.6448 42.3265C14.5795 42.3256 14.4631 42.2877 14.3845 42.2422C14.2605 42.1693 14.2643 42.1314 14.41 41.9354C14.5596 41.7375 14.6647 41.7091 15.3567 41.6864C15.7855 41.6712 16.2428 41.6618 16.3725 41.6646C16.5031 41.6665 16.8865 41.5851 17.2245 41.4837C17.5634 41.3824 18.1598 41.0889 18.5498 40.8323C18.9957 40.5387 19.4406 40.1391 19.7445 39.7603C20.0114 39.428 20.3626 38.8892 20.5255 38.5634C20.6883 38.2377 20.8378 37.876 20.8577 37.7585C20.8776 37.6411 21.0111 37.2264 21.155 36.8353C21.3604 36.2785 21.4181 35.9518 21.4248 35.3202C21.4295 34.8487 21.385 34.4273 21.3169 34.3023C21.2175 34.1205 21.2364 34.0201 21.4494 33.6158C21.5867 33.3554 21.7391 33.1423 21.7883 33.1423ZM33.9263 36.6658C34.6335 36.698 34.9961 36.7624 35.3293 36.9148C35.5764 37.0275 35.7723 37.1516 35.7638 37.1904C35.7553 37.2292 36.0308 37.8371 36.3763 38.5398C36.7218 39.2433 37.1573 40.2442 37.3447 40.765C37.5322 41.2858 37.8313 42.2659 38.0083 42.9429C38.1863 43.62 38.4201 44.6853 38.528 45.3103C38.636 45.9352 38.7571 47.1501 38.796 48.009C38.8641 49.4975 38.8575 49.5847 38.6719 49.8413C38.565 49.989 38.2857 50.2494 38.0509 50.4208C37.8171 50.5912 37.4867 50.8005 37.3173 50.8848C37.1478 50.97 37.0096 51.0287 37.0087 51.0155C37.0077 51.0022 36.9888 50.6509 36.9661 50.2343C36.9443 49.8176 36.7729 48.8167 36.5874 48.009C36.4009 47.2022 36.0336 45.796 35.7704 44.8841C35.5073 43.9732 35.0756 42.6305 34.8115 41.9013C34.5474 41.1722 34.038 39.8939 33.6793 39.0606C33.3205 38.2273 32.9466 37.4394 32.8472 37.3088C32.6805 37.0891 32.6786 37.0569 32.8206 36.8476C32.9683 36.6298 33.0062 36.6241 33.9263 36.6658ZM27.7456 43.9372C27.7825 43.9372 27.8242 44.0991 27.8384 44.2961C27.8516 44.4931 27.9028 44.9088 27.951 45.2193C27.9993 45.5299 28.1659 46.1464 28.3221 46.5886C28.4774 47.0318 28.8011 47.6918 29.0425 48.0563C29.283 48.4209 29.7582 48.9985 30.0971 49.3394C30.437 49.6803 31.0125 50.1348 31.377 50.3498C31.7415 50.5647 32.317 50.8251 32.655 50.9293C32.9939 51.0325 33.6111 51.1499 34.785 51.2607L34.2643 51.3867C33.9386 51.4652 33.4956 51.4918 33.081 51.4577C32.7165 51.4274 32.1627 51.3384 31.8503 51.2598C31.5379 51.1821 30.9633 50.9511 30.5723 50.7475C30.1823 50.5439 29.5897 50.132 29.2555 49.8328C28.9223 49.5326 28.4708 49.0534 28.2521 48.7665C28.0343 48.4806 27.5071 47.6918 27.082 47.0147C26.657 46.3377 26.3086 45.7203 26.3086 45.6417C26.3086 45.564 26.4392 45.3718 26.6002 45.2156C26.7601 45.0593 27.0688 44.708 27.2846 44.4343C27.5014 44.1607 27.7087 43.9372 27.7456 43.9372ZM12.9645 49.8167C13.3034 49.8223 13.6811 49.8545 13.8042 49.8886C14.0077 49.9445 13.8903 50.0799 12.5262 51.3639C11.5246 52.3064 10.8661 52.8503 10.5505 52.9955C10.2362 53.1404 9.75911 53.2445 9.13053 53.3061C8.35806 53.3809 8.07122 53.4547 7.57138 53.7095C7.03936 53.9812 6.71276 54.289 5.07694 56.0578C4.04129 57.178 3.13345 58.1789 3.05961 58.2831C2.92897 58.4649 2.89773 58.446 1.62448 57.1468L1.7182 56.626C1.77026 56.34 1.79771 55.5257 1.77973 54.8183C1.75796 53.9822 1.70494 53.4756 1.62826 53.3742C1.52792 53.2407 1.57146 53.1413 1.91131 52.7199C2.13094 52.4463 2.54652 51.9879 2.83431 51.7001C3.12114 51.4132 3.54809 51.0458 3.78191 50.8848C4.01668 50.7238 4.38872 50.5003 4.61024 50.3895C4.83175 50.2778 5.08735 50.1869 5.17823 50.1869C5.26911 50.1869 6.04726 50.5268 6.90588 50.9425C7.76545 51.3582 8.66004 51.7323 8.89386 51.7739C9.12864 51.8147 9.40506 51.8364 9.50919 51.8222C9.61332 51.8071 10.0819 51.4539 10.5505 51.0372C11.0191 50.6206 11.6155 50.1727 11.8758 50.043C12.246 49.8574 12.4836 49.8081 12.9645 49.8167ZM5.11007 56.3419C5.15172 56.3419 4.86205 56.821 4.46824 57.4072C4.07443 57.9933 3.66263 58.57 3.55377 58.6884C3.35686 58.9024 3.35497 58.9024 3.16658 58.7168C2.9782 58.5312 2.9782 58.5293 3.6011 57.8863C3.94474 57.5322 4.40765 57.0388 4.63012 56.7917C4.85353 56.5445 5.06937 56.3419 5.11007 56.3419Z" fill="#FF9D0A"/>
<path fill-rule="evenodd" clip-rule="evenodd" d="M91.7264 43.085V45.9257H94.8504V47.3461H91.7264L91.7501 50.6537C91.7728 53.8581 91.7804 53.9689 91.9745 54.2284C92.0852 54.3751 92.2906 54.5806 92.4317 54.6848C92.6551 54.8495 92.8369 54.8742 94.9526 54.8742L94.8977 56.1999L94.3771 56.3088C94.0902 56.3694 93.6112 56.4224 93.3121 56.4271C93.0129 56.4328 92.5444 56.3883 92.2708 56.3305C91.9972 56.2718 91.6242 56.1478 91.4424 56.054C91.2607 55.9612 90.9748 55.7425 90.8082 55.5692C90.6416 55.395 90.4087 55.0399 90.2894 54.7795C90.0783 54.3174 90.0726 54.2208 90.0225 47.3461H88.1291V45.9257H90.0225L90.0064 44.5688C89.9978 43.8217 90.0262 43.1825 90.0698 43.1484C90.1133 43.1134 90.5034 43.085 91.7264 43.085ZM119.937 43.085V45.9257H123.061V47.3461H119.937L119.961 50.6537C119.983 53.8581 119.991 53.9689 120.185 54.2284C120.296 54.3751 120.501 54.5806 120.642 54.6848C120.866 54.8495 121.047 54.8742 123.163 54.8742L123.108 56.1999L122.587 56.3088C122.301 56.3694 121.822 56.4224 121.522 56.4271C121.223 56.4328 120.755 56.3883 120.481 56.3305C120.208 56.2718 119.835 56.1478 119.653 56.054C119.471 55.9612 119.185 55.7425 119.019 55.5692C118.852 55.395 118.619 55.0399 118.5 54.7795C118.289 54.3174 118.283 54.2208 118.233 47.3461H116.34V45.9257H118.233L118.217 44.5688C118.208 43.8217 118.237 43.1825 118.28 43.1484C118.324 43.1134 118.714 43.085 119.937 43.085ZM164.335 43.085V45.9257H167.459V47.3461H164.335L164.359 50.6537C164.382 53.8581 164.389 53.9689 164.583 54.2284C164.694 54.3751 164.899 54.5806 165.04 54.6848C165.264 54.8495 165.446 54.8742 167.561 54.8742L167.506 56.1999L166.986 56.3088C166.699 56.3694 166.22 56.4224 165.921 56.4271C165.622 56.4328 165.153 56.3883 164.879 56.3305C164.606 56.2718 164.233 56.1478 164.051 56.054C163.869 55.9612 163.583 55.7425 163.417 55.5692C163.25 55.395 163.017 55.0399 162.898 54.7795C162.687 54.3174 162.681 54.2208 162.631 47.3461H160.738V45.9257H162.631L162.615 44.5688C162.607 43.8217 162.635 43.1825 162.678 43.1484C162.722 43.1134 163.112 43.085 164.335 43.085ZM60.7234 45.6473C61.0358 45.6455 61.5678 45.6881 61.9067 45.7439C62.2456 45.7989 62.7265 45.9371 63.4289 46.2572L63.4251 46.9437C63.4233 47.3215 63.4109 47.6312 63.3977 47.6321C63.3844 47.6321 63.1184 47.5393 62.806 47.4257C62.345 47.2571 62.0231 47.2164 61.102 47.2107C60.0588 47.205 59.9235 47.2249 59.4454 47.455C59.1453 47.5999 58.7524 47.9001 58.5177 48.1652C58.2933 48.418 58.0273 48.8479 57.926 49.1216C57.8247 49.3953 57.6931 49.9492 57.6335 50.3526C57.5521 50.9056 57.553 51.273 57.6363 51.844C57.6969 52.2607 57.8437 52.8146 57.962 53.075C58.0813 53.3354 58.3463 53.7331 58.5518 53.9585C58.7572 54.1848 59.1595 54.4831 59.4454 54.6213C59.9301 54.8571 60.0503 54.8742 61.1967 54.8675C62.2182 54.8628 62.5239 54.8259 62.9954 54.6535C63.3078 54.539 63.5738 54.4462 63.587 54.4462C63.6003 54.4471 63.6107 54.7463 63.6107 55.1109C63.6107 55.6942 63.5851 55.7898 63.3977 55.911C63.2803 55.9868 62.9291 56.1156 62.6167 56.197C62.3043 56.2784 61.6861 56.3694 61.244 56.3987C60.6893 56.4356 60.2046 56.4053 59.6821 56.2993C59.2655 56.216 58.6521 56.0105 58.3189 55.8419C57.9355 55.6487 57.518 55.3287 57.18 54.9689C56.8875 54.6564 56.5259 54.145 56.3782 53.8325C56.2296 53.5201 56.0507 52.9879 55.9797 52.6489C55.9096 52.3099 55.8509 51.6291 55.8509 51.1338C55.8509 50.6386 55.9144 49.936 55.9901 49.5714C56.0668 49.2068 56.276 48.6103 56.4549 48.2457C56.6698 47.8063 56.9652 47.4048 57.3315 47.0554C57.6354 46.7657 58.0746 46.4153 58.3094 46.2771C58.5442 46.1397 59.0554 45.9428 59.4454 45.8396C59.8364 45.7364 60.411 45.6502 60.7234 45.6473ZM70.4266 45.6502C70.7655 45.6473 71.3184 45.7108 71.6573 45.7913C71.9962 45.8727 72.5027 46.0526 72.7838 46.1928C73.0659 46.332 73.5231 46.67 73.8015 46.9437C74.1252 47.2609 74.4272 47.6889 74.6374 48.1273C74.8191 48.5052 75.0321 49.0695 75.1116 49.382C75.1987 49.7276 75.2555 50.3772 75.2555 51.0391C75.2555 51.701 75.1987 52.3506 75.1116 52.6962C75.0321 53.0087 74.8229 53.5627 74.6459 53.9272C74.4338 54.3638 74.1347 54.7728 73.7712 55.1251C73.4512 55.4347 72.9608 55.7823 72.6039 55.9527C72.2139 56.1383 71.6942 56.287 71.184 56.3599C70.5535 56.4508 70.2155 56.4508 69.622 56.3599C69.1751 56.2927 68.6128 56.125 68.2493 55.9527C67.8924 55.7823 67.4021 55.4347 67.0821 55.1251C66.7214 54.7757 66.4166 54.36 66.2055 53.9272C66.0266 53.5627 65.8174 52.9661 65.7407 52.6015C65.6649 52.237 65.6015 51.5448 65.6006 51.0628C65.5996 50.5808 65.6678 49.8782 65.753 49.5004C65.8372 49.1226 66.0389 48.5374 66.2008 48.1984C66.3816 47.8205 66.7148 47.3603 67.0641 47.0052C67.3774 46.6871 67.8688 46.3092 68.1547 46.1644C68.4405 46.0195 68.9309 45.8462 69.2433 45.779C69.5557 45.7117 70.0877 45.654 70.4266 45.6502ZM68.9593 47.4645C68.8031 47.5469 68.5399 47.7561 68.3743 47.9294C68.2086 48.1037 67.9672 48.4588 67.8385 48.7192C67.7097 48.9796 67.5497 49.3839 67.4835 49.6187C67.4163 49.8536 67.3604 50.4928 67.3576 51.0391C67.3538 51.8279 67.3983 52.1707 67.5696 52.6962C67.6889 53.0608 67.9331 53.5617 68.1121 53.8089C68.2919 54.056 68.6412 54.3865 68.8883 54.5427C69.1354 54.6999 69.5727 54.8742 69.8586 54.931C70.1445 54.9887 70.5705 55.0058 70.8053 54.9698C71.0401 54.9338 71.4396 54.8126 71.6952 54.6999C71.9498 54.5872 72.3228 54.3145 72.5235 54.093C72.7242 53.8714 72.9788 53.5096 73.0886 53.2881C73.1994 53.0665 73.348 52.6091 73.419 52.2701C73.4891 51.9311 73.5478 51.3781 73.5478 51.0391C73.5478 50.7001 73.4891 50.1471 73.419 49.8081C73.348 49.4691 73.1994 49.0118 73.0886 48.7902C72.9788 48.5686 72.728 48.2116 72.5329 47.9976C72.3379 47.7827 71.965 47.5005 71.7046 47.3717C71.3932 47.2164 71.0211 47.1236 70.616 47.099C70.2553 47.0781 69.8435 47.1151 69.622 47.188C69.4137 47.2581 69.1155 47.3821 68.9593 47.4645ZM83.1592 45.6862C83.5757 45.7051 84.1295 45.797 84.3898 45.8879C84.6956 45.9958 85.0326 46.224 85.3441 46.5346C85.6603 46.8509 85.9026 47.2088 86.0512 47.5829C86.2775 48.1472 86.2784 48.1794 86.3305 56.1525H84.6265L84.6275 52.5305C84.6284 49.4597 84.6047 48.829 84.4741 48.3877C84.3804 48.0696 84.2052 47.7552 84.0235 47.5791C83.8332 47.3944 83.5416 47.2467 83.2065 47.1653C82.896 47.0905 82.5136 47.0649 82.2599 47.1028C82.0251 47.1378 81.5574 47.3007 81.2185 47.4664C80.8664 47.6378 80.3902 47.9806 79.6092 48.7665V56.1525H77.9052V45.9257H79.2306L79.5269 47.2988L80.022 46.8253C80.2946 46.5649 80.7708 46.2297 81.0813 46.0801C81.3908 45.9305 81.8149 45.7723 82.0232 45.7297C82.2315 45.6862 82.7427 45.6663 83.1592 45.6862ZM100.483 45.654C100.9 45.6492 101.517 45.7032 101.856 45.7733C102.195 45.8443 102.663 45.9987 102.897 46.117C103.131 46.2354 103.468 46.4428 103.644 46.5782C103.821 46.7145 104.082 46.9958 104.224 47.2041C104.367 47.4124 104.554 47.8177 104.638 48.1037C104.769 48.5468 104.792 49.186 104.79 56.1525L103.418 56.1572L103.346 55.8467C103.306 55.6762 103.274 55.4414 103.275 55.324C103.275 55.2065 103.255 55.1109 103.228 55.1109C103.202 55.1109 103 55.2567 102.779 55.4357C102.557 55.6147 102.143 55.8694 101.856 56.001C101.569 56.1336 101.079 56.2908 100.767 56.3495C100.455 56.4082 99.9434 56.4309 99.631 56.4006C99.3186 56.3694 98.85 56.2699 98.5897 56.179C98.318 56.0853 97.9147 55.8296 97.6431 55.5787C97.3581 55.3154 97.0788 54.9386 96.9406 54.6299C96.775 54.2587 96.7002 53.8932 96.6708 53.3117C96.6377 52.6404 96.6661 52.4122 96.846 51.9387C96.9927 51.5495 97.2114 51.219 97.5408 50.8895C97.8627 50.5685 98.2101 50.3356 98.5897 50.1869C99.0346 50.0127 99.3934 49.9558 100.246 49.9255C101.006 49.899 101.536 49.9312 101.998 50.0335C102.362 50.114 102.756 50.202 102.873 50.2305C103.08 50.2797 103.086 50.2589 103.086 49.5951C103.086 49.2172 103.043 48.7589 102.99 48.5771C102.937 48.3953 102.756 48.1037 102.587 47.9294C102.419 47.7561 102.111 47.5232 101.903 47.4124C101.598 47.2505 101.313 47.2041 100.436 47.1738C99.5562 47.1425 99.2022 47.1728 98.5897 47.3291C98.1732 47.4361 97.7576 47.5478 97.6667 47.5772C97.519 47.6245 97.5011 47.5535 97.5011 46.2098L98.0927 46.0223C98.4184 45.9182 98.9182 45.796 99.205 45.7487C99.4919 45.7023 100.066 45.6597 100.483 45.654ZM98.5651 52.2701C98.443 52.5144 98.3521 52.8686 98.3521 53.0987C98.353 53.3203 98.4193 53.6612 98.5007 53.8562C98.5812 54.0513 98.7412 54.3117 98.8557 54.4338C98.9693 54.555 99.17 54.7113 99.2997 54.7804C99.4303 54.8495 99.7494 54.9348 100.01 54.9707C100.333 55.0162 100.677 54.9868 101.098 54.8789C101.437 54.7927 101.863 54.6308 102.045 54.52C102.227 54.4102 102.536 54.199 102.731 54.0522L103.086 53.7852L103.09 51.6546C101.877 51.398 101.141 51.3223 100.672 51.3213C99.9283 51.3204 99.7541 51.3535 99.2997 51.5817C98.887 51.7891 98.7345 51.933 98.5651 52.2701ZM112.316 45.6473C112.629 45.6455 113.161 45.6881 113.5 45.7439C113.838 45.7989 114.319 45.9371 115.022 46.2572L115.018 46.9437C115.016 47.3215 115.004 47.6312 114.991 47.6321C114.977 47.6321 114.711 47.5393 114.399 47.4257C113.938 47.2571 113.616 47.2164 112.695 47.2107C111.652 47.205 111.516 47.2249 111.038 47.455C110.738 47.5999 110.345 47.9001 110.111 48.1652C109.886 48.418 109.62 48.8479 109.519 49.1216C109.418 49.3953 109.286 49.9492 109.226 50.3526C109.145 50.9056 109.146 51.273 109.229 51.844C109.29 52.2607 109.437 52.8146 109.555 53.075C109.674 53.3354 109.939 53.7331 110.145 53.9585C110.35 54.1848 110.751 54.4831 111.038 54.6213C111.523 54.8571 111.643 54.8742 112.79 54.8675C113.811 54.8628 114.117 54.8259 114.588 54.6535C114.901 54.539 115.167 54.4462 115.18 54.4462C115.193 54.4471 115.204 54.7463 115.204 55.1109C115.204 55.6942 115.178 55.7898 114.991 55.911C114.873 55.9868 114.522 56.1156 114.21 56.197C113.897 56.2784 113.279 56.3694 112.837 56.3987C112.282 56.4356 111.797 56.4053 111.275 56.2993C110.858 56.216 110.245 56.0105 109.912 55.8419C109.528 55.6487 109.111 55.3287 108.773 54.9689C108.48 54.6564 108.119 54.145 107.971 53.8325C107.822 53.5201 107.644 52.9879 107.573 52.6489C107.502 52.3099 107.444 51.6291 107.444 51.1338C107.444 50.6386 107.507 49.936 107.583 49.5714C107.66 49.2068 107.869 48.6103 108.048 48.2457C108.263 47.8063 108.558 47.4048 108.924 47.0554C109.228 46.7657 109.668 46.4153 109.902 46.2771C110.136 46.1397 110.648 45.9428 111.038 45.8396C111.429 45.7364 112.004 45.6502 112.316 45.6473ZM134.089 45.6473C134.402 45.6455 134.934 45.6881 135.273 45.7439C135.612 45.7989 136.093 45.9371 136.795 46.2572L136.791 46.9437C136.789 47.3215 136.777 47.6312 136.764 47.6321C136.75 47.6321 136.484 47.5393 136.172 47.4257C135.711 47.2571 135.389 47.2164 134.468 47.2107C133.425 47.205 133.289 47.2249 132.811 47.455C132.511 47.5999 132.118 47.9001 131.884 48.1652C131.659 48.418 131.393 48.8479 131.292 49.1216C131.191 49.3953 131.059 49.9492 130.999 50.3526C130.918 50.9056 130.919 51.273 131.002 51.844C131.063 52.2607 131.21 52.8146 131.328 53.075C131.447 53.3354 131.712 53.7331 131.918 53.9585C132.123 54.1848 132.525 54.4831 132.811 54.6213C133.296 54.8571 133.416 54.8742 134.563 54.8675C135.584 54.8628 135.89 54.8259 136.361 54.6535C136.674 54.539 136.94 54.4462 136.953 54.4462C136.966 54.4471 136.977 54.7463 136.977 55.1109C136.977 55.6942 136.951 55.7898 136.764 55.911C136.646 55.9868 136.295 56.1156 135.983 56.197C135.67 56.2784 135.052 56.3694 134.61 56.3987C134.055 56.4356 133.571 56.4053 133.048 56.2993C132.632 56.216 132.018 56.0105 131.685 55.8419C131.301 55.6487 130.884 55.3287 130.546 54.9689C130.254 54.6564 129.892 54.145 129.744 53.8325C129.596 53.5201 129.417 52.9879 129.346 52.6489C129.276 52.3099 129.217 51.6291 129.217 51.1338C129.217 50.6386 129.28 49.936 129.356 49.5714C129.433 49.2068 129.642 48.6103 129.821 48.2457C130.036 47.8063 130.331 47.4048 130.698 47.0554C131.001 46.7657 131.442 46.4153 131.675 46.2771C131.909 46.1397 132.421 45.9428 132.811 45.8396C133.202 45.7364 133.777 45.6502 134.089 45.6473ZM143.438 45.6483C143.737 45.6445 144.205 45.689 144.479 45.7468C144.753 45.8045 145.228 45.9854 145.535 46.1492C145.842 46.313 146.242 46.617 146.422 46.8253C146.603 47.0336 146.873 47.4598 147.022 47.7722C147.171 48.0847 147.357 48.6387 147.434 49.0032C147.512 49.3678 147.576 50.06 147.579 51.4179L140.527 51.4151L140.598 51.9378C140.636 52.2247 140.761 52.7048 140.874 53.004C141.007 53.3544 141.235 53.7019 141.513 53.9774C141.779 54.2407 142.166 54.4944 142.515 54.6336C142.981 54.8211 143.294 54.8675 144.266 54.8969C145.266 54.9272 145.586 54.8988 146.33 54.7141C146.814 54.5939 147.231 54.5172 147.256 54.5427C147.28 54.5683 147.301 54.8458 147.302 55.1582C147.303 55.5048 147.256 55.77 147.181 55.8372C147.114 55.8987 146.74 56.037 146.349 56.1459C145.959 56.2548 145.233 56.3694 144.739 56.4015C144.216 56.4356 143.543 56.4148 143.13 56.3514C142.74 56.2917 142.144 56.1497 141.805 56.036C141.466 55.9224 140.944 55.6459 140.645 55.4224C140.315 55.1753 139.951 54.7842 139.72 54.4244C139.51 54.0986 139.251 53.5769 139.143 53.2644C139.001 52.8544 138.932 52.3677 138.899 51.5126C138.864 50.6376 138.892 50.1443 139.003 49.6187C139.087 49.2286 139.297 48.6103 139.47 48.2457C139.643 47.8811 139.999 47.348 140.261 47.0621C140.521 46.7761 140.986 46.4049 141.293 46.2392C141.6 46.0725 142.086 45.8727 142.373 45.7951C142.659 45.7174 143.138 45.6511 143.438 45.6483ZM142.231 47.4171C142.022 47.5251 141.716 47.7561 141.549 47.9294C141.383 48.1037 141.142 48.4805 141.014 48.7665C140.885 49.0525 140.756 49.4256 140.725 49.5951L140.669 49.9028H145.781C145.783 49.3527 145.718 49.0013 145.637 48.7665C145.555 48.5317 145.384 48.1804 145.256 47.9853C145.128 47.7902 144.842 47.5251 144.621 47.3973C144.383 47.26 144.006 47.1454 143.698 47.1179C143.411 47.0924 143.05 47.1047 142.893 47.1454C142.737 47.187 142.439 47.3092 142.231 47.4171ZM155.768 45.6862C156.184 45.7051 156.738 45.797 156.999 45.8879C157.304 45.9958 157.641 46.224 157.953 46.5346C158.269 46.8509 158.511 47.2088 158.66 47.5829C158.886 48.1472 158.887 48.1794 158.939 56.1525H157.235L157.236 52.5305C157.237 49.4597 157.213 48.829 157.083 48.3877C156.989 48.0696 156.814 47.7552 156.632 47.5791C156.442 47.3944 156.15 47.2467 155.815 47.1653C155.505 47.0905 155.122 47.0649 154.869 47.1028C154.635 47.1378 154.166 47.3007 153.827 47.4664C153.475 47.6378 152.999 47.9806 152.218 48.7665V56.1525H150.514V45.9257H151.839L152.136 47.2988L152.631 46.8253C152.903 46.5649 153.379 46.2297 153.69 46.0801C154 45.9305 154.424 45.7723 154.632 45.7297C154.84 45.6862 155.351 45.6663 155.768 45.6862ZM173.825 45.6483C174.125 45.6445 174.593 45.689 174.867 45.7468C175.14 45.8045 175.615 45.9854 175.923 46.1492C176.23 46.313 176.629 46.617 176.81 46.8253C176.991 47.0336 177.261 47.4598 177.409 47.7722C177.559 48.0847 177.745 48.6387 177.822 49.0032C177.9 49.3678 177.964 50.06 177.967 51.4179L170.914 51.4151L170.985 51.9378C171.024 52.2247 171.149 52.7048 171.262 53.004C171.394 53.3544 171.622 53.7019 171.901 53.9774C172.167 54.2407 172.554 54.4944 172.902 54.6336C173.369 54.8211 173.681 54.8675 174.654 54.8969C175.653 54.9272 175.973 54.8988 176.717 54.7141C177.202 54.5939 177.619 54.5172 177.643 54.5427C177.668 54.5683 177.689 54.8458 177.69 55.1582C177.691 55.5048 177.643 55.77 177.568 55.8372C177.501 55.8987 177.127 56.037 176.736 56.1459C176.346 56.2548 175.621 56.3694 175.127 56.4015C174.604 56.4356 173.93 56.4148 173.518 56.3514C173.128 56.2917 172.531 56.1497 172.192 56.036C171.853 55.9224 171.332 55.6459 171.033 55.4224C170.702 55.1753 170.339 54.7842 170.108 54.4244C169.898 54.0986 169.638 53.5769 169.53 53.2644C169.388 52.8544 169.32 52.3677 169.287 51.5126C169.252 50.6376 169.28 50.1443 169.391 49.6187C169.475 49.2286 169.685 48.6103 169.858 48.2457C170.031 47.8811 170.387 47.348 170.648 47.0621C170.909 46.7761 171.374 46.4049 171.681 46.2392C171.988 46.0725 172.474 45.8727 172.76 45.7951C173.047 45.7174 173.526 45.6511 173.825 45.6483ZM172.618 47.4171C172.41 47.5251 172.103 47.7561 171.937 47.9294C171.771 48.1037 171.53 48.4805 171.402 48.7665C171.273 49.0525 171.143 49.4256 171.112 49.5951L171.056 49.9028H176.168C176.171 49.3527 176.106 49.0013 176.024 48.7665C175.943 48.5317 175.772 48.1804 175.644 47.9853C175.516 47.7902 175.23 47.5251 175.009 47.3973C174.771 47.26 174.393 47.1454 174.086 47.1179C173.799 47.0924 173.437 47.1047 173.281 47.1454C173.125 47.187 172.827 47.3092 172.618 47.4171ZM186.392 45.6417V47.2514L185.753 47.3111C185.402 47.3433 184.88 47.4408 184.594 47.5279C184.307 47.6141 183.881 47.7959 183.647 47.9304C183.413 48.0648 183.061 48.3508 182.511 48.9559V56.1525H180.807V45.9257H182.132L182.187 46.2808C182.217 46.4759 182.285 46.8272 182.431 47.4882L182.934 46.9674C183.211 46.6814 183.644 46.332 183.897 46.1918C184.15 46.0517 184.591 45.8727 184.878 45.7951C185.164 45.7174 185.622 45.6511 186.392 45.6417Z" fill="#000204"/>
<path fill-rule="evenodd" clip-rule="evenodd" d="M56.0374 8.80637L59.6584 8.80731C61.6502 8.80826 63.7906 8.85182 64.4153 8.90485C65.0401 8.95787 65.9347 9.06488 66.4033 9.14252C66.8719 9.22017 67.5961 9.37073 68.0126 9.47679C68.4292 9.58284 69.196 9.84893 69.7166 10.0677C70.2373 10.2864 71.0893 10.7485 71.6099 11.0932C72.1921 11.4786 72.8482 12.025 73.3149 12.5126C73.7314 12.9482 74.2407 13.5599 74.4461 13.8724C74.6506 14.1849 74.9999 14.8241 75.2205 15.2928C75.4411 15.7615 75.727 16.5503 75.8557 17.0446C75.9845 17.5389 76.1359 18.3599 76.1927 18.8674C76.2495 19.375 76.2959 20.1107 76.2959 20.5009C76.2959 20.8919 76.2486 21.6476 76.1908 22.1817C76.1331 22.7157 75.9816 23.5566 75.8529 24.0518C75.7251 24.5471 75.4922 25.2497 75.3369 25.6142C75.1817 25.9788 74.8551 26.5972 74.6118 26.9873C74.3685 27.3784 73.9321 27.9749 73.6424 28.313C73.3518 28.651 72.7336 29.2173 72.2679 29.5705C71.8021 29.9227 70.9946 30.4189 70.474 30.6727C69.9533 30.9255 69.1865 31.2437 68.77 31.3782C68.3534 31.5126 67.7362 31.6859 67.3973 31.7636C67.0584 31.8412 66.356 31.9757 65.8353 32.0628C65.0714 32.1897 64.0319 32.2276 56.0374 32.2901V8.80637ZM60.3911 28.7391C63.3636 28.6321 64.6302 28.5374 65.1253 28.4607C65.6204 28.383 66.3437 28.2296 66.7347 28.1198C67.1247 28.01 67.7854 27.7448 68.202 27.5308C68.7719 27.2382 69.159 26.9418 69.7668 26.3311C70.3708 25.7231 70.6614 25.3415 70.9236 24.8094C71.1158 24.4183 71.36 23.7583 71.466 23.3416C71.5721 22.925 71.7037 22.1362 71.7586 21.5898C71.8135 21.0435 71.8305 20.2338 71.7955 19.7907C71.7605 19.3475 71.6762 18.7083 71.6071 18.3703C71.5389 18.0322 71.3704 17.4565 71.2341 17.0919C71.0978 16.7274 70.8062 16.1554 70.5876 15.8221C70.3689 15.4879 69.8918 14.9424 69.5273 14.6082C69.1316 14.2464 68.5409 13.8355 68.06 13.5883C67.6179 13.3601 66.8511 13.0666 66.356 12.9349C65.8609 12.8033 65.0941 12.6518 64.652 12.5978C64.2099 12.5439 63.0701 12.4994 62.1197 12.4994H60.392L60.3911 28.7391ZM80.7452 8.80637H95.9864V12.4994H85.0998V18.465H94.4717V22.158H85.0998V28.6917H96.649V32.2901H80.7452V8.80637ZM103.308 8.85371L105.184 13.8724C106.216 16.6327 107.61 20.4043 108.283 22.2527C108.955 24.1011 109.562 25.7961 109.632 26.0186C109.703 26.2411 109.781 26.4229 109.808 26.421C109.833 26.4201 110.021 25.94 110.223 25.3538C110.426 24.7677 111.075 22.9676 111.666 21.3531C112.258 19.7386 113.544 16.2662 116.308 8.85371L118.595 8.83004C120.736 8.80826 120.88 8.81678 120.835 8.97208C120.809 9.06298 118.754 14.3478 111.748 32.291H109.784C108.296 32.2901 107.81 32.2616 107.782 32.1717C107.761 32.1063 105.716 26.8651 103.238 20.5245C100.759 14.1839 98.7317 8.95219 98.7326 8.89916C98.7345 8.83572 99.5174 8.81205 103.308 8.85371ZM29.8623 12.738C30.0999 12.7683 30.3196 12.8743 30.454 13.0221C30.5704 13.1508 30.667 13.3421 30.667 13.4463C30.667 13.5504 30.7882 13.7531 30.9377 13.8961C31.1308 14.0826 31.2908 14.4254 31.4991 15.1034C31.6591 15.6242 31.803 16.1355 31.82 16.2397C31.8427 16.3817 31.7963 16.4291 31.6373 16.4291C31.5199 16.4291 31.2747 16.4187 30.7617 16.3817L30.7598 15.8373C30.7588 15.538 30.7209 15.2284 30.6755 15.1507C30.6197 15.0551 30.5742 15.2265 30.5382 15.6716C30.5079 16.0361 30.472 16.3448 30.4568 16.359C30.4417 16.3723 30.1747 16.3183 29.8623 16.2388C29.5499 16.1602 29.0094 16.0636 28.6629 16.0257C28.0315 15.9556 28.0305 15.9556 27.9775 15.6242C27.9472 15.4415 27.9198 15.0797 27.916 14.8193C27.9103 14.4671 27.8876 14.3942 27.827 14.5352C27.7816 14.6394 27.7418 14.6716 27.739 14.6063C27.7352 14.5409 27.8365 14.2644 27.9633 13.9908C28.0911 13.7171 28.3145 13.3762 28.4603 13.2332C28.6061 13.0902 28.8967 12.9084 29.105 12.8308C29.3284 12.7465 29.638 12.7086 29.8623 12.738ZM28.7784 16.8704C29.1135 16.9139 29.6228 17.0285 30.4303 17.3022L30.4 18.6174C30.3754 19.6486 30.3243 20.071 30.1634 20.5728C30.0498 20.9251 29.9248 21.2129 29.886 21.212C29.8462 21.212 29.655 21.1164 29.46 20.9999C29.264 20.8834 28.8636 20.7026 28.0343 20.4062L28.2719 19.838C28.4026 19.5255 28.5313 19.0568 28.5578 18.7964C28.591 18.4754 28.5417 18.0862 28.4064 17.5891C28.2956 17.1857 28.1972 16.841 28.1867 16.824C28.1763 16.8069 28.4423 16.8278 28.7784 16.8704ZM31.0456 17.234C31.1498 17.234 31.448 17.2766 32.1816 17.4234L32.3634 18.0625C32.4637 18.4138 32.6379 19.0426 32.7525 19.4592C32.9304 20.1107 32.9503 20.356 32.8964 21.2111C32.8623 21.7574 32.8254 22.2138 32.815 22.2243C32.8045 22.2347 32.4666 22.139 32.0633 22.0112C31.6591 21.8834 31.2653 21.7792 31.1876 21.7792C31.1091 21.7792 31.0239 21.7366 30.9983 21.6845C30.9718 21.6324 30.9964 21.3237 31.0532 20.998C31.1337 20.535 31.1242 20.1183 31.0068 19.0805C30.9245 18.3513 30.8563 17.6374 30.8563 17.4944C30.8563 17.2965 30.9018 17.234 31.0456 17.234ZM18.6037 19.7907C18.6255 19.7907 18.7609 19.8494 18.9048 19.9204C19.0477 19.9924 19.3033 20.2054 19.4728 20.3939C19.6413 20.5832 19.8599 20.8976 19.9584 21.0927C20.0568 21.2878 20.2348 21.7887 20.3541 22.2053C20.5235 22.7972 20.5709 23.1911 20.5671 24.0045C20.5633 24.9116 20.5264 25.1503 20.2793 25.851C20.1241 26.2941 19.8997 26.9115 19.7823 27.224C19.6138 27.67 19.5674 27.9863 19.5674 28.6917C19.5684 29.187 19.6204 29.847 19.6848 30.1595C19.7691 30.5714 19.7719 30.7343 19.6962 30.7513C19.6384 30.7646 19.5901 30.8706 19.5901 30.988C19.5901 31.1055 19.4302 31.6698 19.2342 32.2427C19.0392 32.8156 18.6908 33.6044 18.4608 33.9945C18.2307 34.3856 17.7631 34.9954 17.4204 35.3505C17.0777 35.7056 16.593 36.1317 16.3431 36.2974C15.9739 36.5417 15.8679 36.5758 15.7751 36.4745C15.7107 36.4044 15.6473 35.9774 15.6274 35.4802C15.6085 35.002 15.6435 34.2057 15.7051 33.7104C15.7656 33.2152 15.9427 32.1717 16.0979 31.3905C16.2532 30.6093 16.4681 29.6718 16.576 29.3072C16.6839 28.9427 16.8571 28.474 16.9622 28.2656C17.0663 28.0573 17.3068 27.6965 17.8398 27.0403L17.7924 25.9012C17.7659 25.2743 17.746 24.1872 17.747 23.4837C17.7479 22.7422 17.8028 21.9866 17.8767 21.6845C17.9467 21.3985 18.1294 20.855 18.2837 20.4772C18.4371 20.0994 18.5819 19.7907 18.6037 19.7907ZM27.7683 21.2082C27.8261 21.2063 28.2256 21.3768 28.6553 21.587C29.0842 21.7972 29.4628 22.0434 29.495 22.1343C29.53 22.2309 29.3284 22.889 29.0075 23.7204C28.7074 24.5016 28.3391 25.4069 28.1915 25.7326C28.0428 26.0584 27.8999 26.3244 27.8743 26.3244C27.8478 26.3244 27.5392 26.1786 27.188 26.0006C26.8359 25.8226 26.3142 25.6 25.5077 25.3349L26.0047 24.4325C26.2773 23.9372 26.763 23.0093 27.082 22.371C27.401 21.7328 27.7096 21.2101 27.7683 21.2082ZM33.5183 21.7499C33.6423 21.7754 33.8714 21.8341 34.0276 21.8805C34.2946 21.9582 34.3362 22.0415 34.7376 23.2886C34.9714 24.0177 35.1418 24.6323 35.1163 24.655C35.0898 24.6777 34.8607 24.7109 34.145 24.762L33.7342 23.3416C33.5079 22.5604 33.3157 21.872 33.3082 21.8114C33.2996 21.7442 33.3801 21.7205 33.5183 21.7499ZM30.8525 22.5566L31.2094 22.6456C31.4054 22.6949 31.8352 22.8293 32.7629 23.1522L32.7127 23.5784C32.6853 23.8132 32.637 24.3028 32.6048 24.6673C32.5736 25.0319 32.46 25.6502 32.353 26.0404C32.246 26.4314 31.9828 27.1038 31.7679 27.5365C31.5531 27.9683 31.3505 28.3092 31.3173 28.294C31.2852 28.2779 30.9207 28.0744 29.7572 27.4134L30.809 25.3709L30.8525 22.5566ZM35.2337 25.4883C35.3558 25.476 35.4391 25.6019 35.5527 25.9693C35.6369 26.2421 35.6833 26.5725 35.6559 26.7032C35.6275 26.8329 35.3141 27.5479 34.9582 28.2921C34.6022 29.0355 34.2785 29.6425 34.2397 29.6415C34.2009 29.6396 34.1867 29.5421 34.2084 29.4256C34.2302 29.3082 34.3429 28.616 34.4583 27.8869C34.6496 26.6881 34.6571 26.5138 34.4053 25.5802L34.7367 25.5423C34.9184 25.5205 35.1428 25.4968 35.2337 25.4883ZM25.2152 26.0953C25.3231 26.1284 25.7103 26.2799 26.0747 26.4305C26.4392 26.582 26.9078 26.8045 27.1161 26.9257C27.3243 27.046 27.4862 27.1842 27.4749 27.2316C27.4644 27.2799 27.1833 27.9361 26.851 28.6917C26.3635 29.7968 26.2111 30.0619 26.0653 30.0506C25.9668 30.0421 25.5787 29.9568 25.2048 29.8612C24.6888 29.7286 24.5109 29.6396 24.4721 29.4966C24.4437 29.3925 24.4209 28.9664 24.4219 28.5497C24.4228 27.9797 24.4825 27.6284 24.6623 27.1293C24.7939 26.7648 24.9274 26.3689 24.9596 26.2506C25.005 26.0839 25.0628 26.0489 25.2152 26.0953ZM29.4212 28.2211C29.4553 28.223 29.7165 28.3518 30.0034 28.508C30.2893 28.6643 30.6301 28.8736 30.9974 29.1538L30.382 30.3915C30.0431 31.0723 29.7345 31.6282 29.6957 31.6282C29.6569 31.6272 29.2735 31.4549 28.8437 31.2437C28.4139 31.0325 28.0523 30.8413 28.0391 30.8176C28.0258 30.7939 28.2558 30.2949 28.5493 29.7097C28.8428 29.1235 29.1448 28.5478 29.2205 28.4313C29.2972 28.3139 29.3871 28.2192 29.4212 28.2211ZM22.9176 31.1537C23.0142 31.1537 23.5936 31.3053 24.2051 31.4918C24.8166 31.6774 25.8712 32.0467 26.5481 32.3128C27.2249 32.5789 28.3108 33.0684 28.9621 33.4008C29.6124 33.7332 30.6774 34.36 31.3287 34.7947C31.979 35.2293 32.6824 35.734 32.8907 35.9168C33.0989 36.0986 33.2476 36.2738 33.222 36.3041C33.1955 36.3353 32.9191 36.163 32.6067 35.9215C32.2943 35.68 31.6127 35.199 31.092 34.8524C30.5714 34.5068 29.549 33.9207 28.8201 33.5495C28.0911 33.1783 27.0687 32.7058 26.5481 32.4984C26.0274 32.291 25.0258 31.9416 24.3234 31.7238C23.6201 31.5051 22.9659 31.3403 22.8694 31.3583C22.7558 31.3791 22.433 31.862 21.9464 32.7398C21.278 33.9472 21.2118 34.111 21.3159 34.3023C21.3831 34.4273 21.4285 34.8486 21.4238 35.3202C21.4172 35.9537 21.3594 36.2757 21.1521 36.8353C21.0063 37.2254 20.7129 37.8419 20.4989 38.2055C20.2859 38.5682 19.77 39.2102 19.3535 39.6315C18.9369 40.052 18.3405 40.5633 18.0282 40.7669C17.7158 40.9705 17.2254 41.2328 16.9395 41.3502C16.6527 41.4676 16.1632 41.6106 15.8508 41.6693C15.5384 41.728 15.1229 41.7517 14.9278 41.7205C14.5852 41.6665 14.5624 41.6807 14.2652 42.1409C14.0957 42.4032 13.9783 42.6305 14.0049 42.6465C14.0304 42.6626 14.3286 42.7507 14.6675 42.8426C15.0055 42.9344 15.6445 43.1579 16.0875 43.3397C16.5296 43.5215 17.2964 43.8775 17.7915 44.1304C18.2856 44.3832 19.1594 44.9002 19.7321 45.278C20.3049 45.6559 21.1143 46.2998 21.5308 46.7088C22.2805 47.4465 22.2872 47.4579 22.2351 47.8499C22.1991 48.1226 21.9946 48.525 21.58 49.1453C21.2487 49.6396 20.9325 50.0761 20.8757 50.114C20.8198 50.1528 20.6135 50.1841 20.4185 50.185C20.2235 50.186 20.0635 50.1651 20.0635 50.1395C20.0635 50.113 20.1117 49.9956 20.1714 49.8791C20.2537 49.7144 20.249 49.5913 20.1477 49.3432C20.0748 49.1661 19.7283 48.7504 19.3771 48.4199C19.0259 48.0895 18.3652 47.5705 17.9098 47.2656C17.4545 46.9607 16.7833 46.5441 16.4188 46.3396C16.0544 46.135 15.4362 45.8244 15.0462 45.6502C14.6552 45.476 14.038 45.2326 13.6735 45.1085C13.3091 44.9845 12.7761 44.8576 12.4902 44.8254C12.0112 44.7714 11.9449 44.7885 11.6581 45.0385C11.4867 45.1881 11.3324 45.2885 11.3154 45.2629C11.2993 45.2364 11.2368 45.119 11.1781 45.0025C11.1185 44.8851 11.0702 44.7042 11.0702 44.6001C11.0702 44.4893 11.4337 44.0366 12.8215 42.6096L13.2949 42.6106C13.7493 42.6106 13.7786 42.5945 14.0191 42.2091C14.1573 41.9875 14.3447 41.7422 14.4365 41.6646C14.5492 41.568 14.8341 41.5188 15.3217 41.5102C15.8319 41.5017 16.2191 41.4307 16.6555 41.265C16.9935 41.1372 17.5264 40.8701 17.8388 40.6713C18.1512 40.4734 18.7003 40.0293 19.0591 39.6855C19.4188 39.3418 19.9092 38.7623 20.1506 38.3977C20.392 38.0331 20.7053 37.447 20.8473 37.0957C20.9883 36.7434 21.1521 36.1686 21.2099 35.8173C21.2979 35.2871 21.2894 35.0768 21.1625 34.5863C21.0177 34.0248 21.0186 33.9813 21.1853 33.7341C21.2818 33.5902 21.6056 33.0258 21.9057 32.4794C22.2048 31.9321 22.5163 31.4104 22.5958 31.3195C22.6762 31.2276 22.8211 31.1537 22.9176 31.1537ZM20.0663 32.4794C20.1193 32.4794 20.1884 32.7455 20.2187 33.0713C20.249 33.3961 20.2452 33.8544 20.2111 34.0892C20.1771 34.3231 20.1089 34.717 20.0587 34.9651C20.0095 35.2123 19.9366 35.414 19.8978 35.4121C19.859 35.4111 19.629 35.7198 19.3866 36.0986C19.1452 36.4773 18.7505 36.9688 18.5109 37.1904C18.2714 37.411 17.9155 37.6392 17.7205 37.696C17.4677 37.7699 17.2566 37.7708 16.9868 37.6998C16.7786 37.644 16.523 37.5322 16.4188 37.4508C16.2333 37.305 16.2333 37.2993 16.4103 37.1866C16.5088 37.1231 16.8496 36.877 17.1676 36.6383C17.4848 36.3997 18.0102 35.8884 18.3358 35.502C18.6785 35.0958 19.1471 34.3704 19.4481 33.7815C19.735 33.2209 19.9688 32.6991 19.9688 32.6215C19.9688 32.5429 20.0123 32.4794 20.0663 32.4794ZM15.2355 47.7325C15.2611 47.7315 15.6445 47.9522 16.0875 48.223C16.5296 48.4929 17.2112 48.9549 17.6022 49.2494C17.9922 49.543 18.5782 50.0666 18.9038 50.4113C19.2295 50.7569 19.522 51.1348 19.5542 51.2522C19.5863 51.3687 19.5863 51.5391 19.5542 51.631C19.5012 51.7806 19.433 51.7654 18.8565 51.4766C18.5053 51.3014 17.8123 51.006 17.3182 50.8204C16.8231 50.6357 15.9928 50.3734 15.4722 50.239C14.9515 50.1045 14.4611 49.9937 14.3835 49.9928C14.3049 49.9918 13.5599 50.6376 12.7269 51.4274C11.5984 52.4974 11.0674 52.933 10.6442 53.1347C10.2192 53.3364 9.84902 53.4254 9.1769 53.4869C8.5237 53.5466 8.13463 53.6375 7.75691 53.8193C7.47007 53.9566 7.08668 54.1791 6.90492 54.3136C6.72221 54.448 6.50922 54.6573 6.43159 54.7785C6.35302 54.9007 5.58622 55.7671 4.72761 56.7046C3.86804 57.642 3.13343 58.4128 3.09462 58.4175C3.05581 58.4213 3.02362 58.3929 3.02362 58.3541C3.02362 58.3143 3.90875 57.3239 4.99078 56.1525C6.70991 54.2899 7.03461 53.9822 7.57042 53.7094C8.07025 53.4538 8.35709 53.3799 9.12957 53.3051C9.75815 53.2445 10.2353 53.1403 10.5496 52.9955C10.8651 52.8503 11.5237 52.3064 12.5252 51.3639C13.8894 50.0789 14.0058 49.9445 13.8032 49.8886C13.6792 49.8545 13.4615 49.8223 13.3185 49.8176C13.1756 49.8119 13.062 49.7759 13.0667 49.7371C13.0724 49.6973 13.5514 49.2315 14.1317 48.6993C14.713 48.1681 15.209 47.7334 15.2355 47.7325Z" fill="#006B9C"/>
<path d="M31.519 0.142037C31.5711 0.167604 31.6373 0.146772 31.6657 0.0946912C31.6941 0.0426104 31.8115 0.00189277 31.9261 0.00378662C32.0406 0.00568047 32.424 0.0587081 32.778 0.122152C33.1311 0.184649 33.4473 0.21495 33.4795 0.189383C33.5108 0.163817 33.5089 0.195065 33.4748 0.260403C33.4407 0.32574 33.4606 0.410963 33.5202 0.449787C33.5978 0.500921 33.6092 0.906204 33.5609 1.89384C33.525 2.64854 33.4322 3.9695 33.3546 4.8293C33.2779 5.68911 33.1302 6.98829 33.0261 7.71742C32.9219 8.44655 32.7089 9.68228 32.5537 10.4635C32.3975 11.2447 32.1428 12.3744 31.9866 12.9728C31.803 13.6773 31.6335 14.129 31.5057 14.2512C31.3391 14.4103 31.2994 14.4178 31.2549 14.2985C31.2265 14.2209 31.0826 14.0391 30.9349 13.8961C30.7872 13.7531 30.667 13.5505 30.667 13.4463C30.667 13.3421 30.5638 13.1395 30.4389 12.9965C30.241 12.7711 30.1416 12.7371 29.7052 12.7418C29.4098 12.7456 29.0615 12.8194 28.537 13.094L28.0836 12.5837C27.8346 12.3034 27.4455 11.7115 27.2193 11.2684C26.9921 10.8252 26.6929 10.1226 26.5538 9.70596C26.4146 9.28931 26.2537 8.6293 26.1959 8.23823C26.1098 7.65492 26.1202 7.32539 26.2546 6.39173C26.3446 5.76676 26.5216 4.95714 26.6494 4.59257C26.7762 4.22801 27.0829 3.58978 27.33 3.17503C27.5771 2.75933 28.0779 2.11921 28.4423 1.75275C28.8655 1.32758 29.3445 0.961125 29.7677 0.739545C30.1321 0.549214 30.4625 0.390131 30.5013 0.386343C30.5401 0.381609 30.6253 0.360776 30.6907 0.339944C30.756 0.318165 30.9472 0.254721 31.1167 0.197906C31.2861 0.14109 31.4669 0.11647 31.519 0.142037Z" fill="#E8B685"/>
<path d="M34.7727 13.4378C34.9743 13.2077 35.3085 12.6689 35.5158 12.239C35.7231 11.8091 35.9039 11.4578 35.9181 11.4578C35.9323 11.4578 35.9285 11.5648 35.9086 11.6945C35.8897 11.8242 35.7647 12.2191 35.6322 12.5704C35.4987 12.9217 35.2687 13.4018 35.121 13.6357C34.9251 13.9444 34.7253 14.1177 34.3921 14.2644C34.1393 14.3762 33.7834 14.5002 33.6016 14.5409C33.4028 14.5854 33.293 14.5807 33.3281 14.5277C33.3602 14.4803 33.6158 14.3089 33.896 14.148C34.1763 13.987 34.571 13.6669 34.7727 13.4378Z" fill="#E8B685"/>
<path d="M31.9119 38.2083L32.2593 37.6648C32.4496 37.3656 32.6493 37.1336 32.7014 37.1478C32.7544 37.162 32.9333 37.4489 33.099 37.786C33.2646 38.1222 33.6225 38.9308 33.8942 39.5814C34.1649 40.2328 34.5653 41.2555 34.784 41.854C35.0027 42.4524 35.3776 43.6039 35.618 44.4107C35.8575 45.2174 36.1652 46.3263 36.3025 46.8727C36.4397 47.419 36.6546 48.3783 36.7815 49.0032C36.9083 49.6282 37.0115 50.2996 37.0106 50.4946C37.0096 50.7257 36.968 50.8422 36.8913 50.8289C36.826 50.8185 36.453 50.9075 36.0629 51.0278C35.672 51.148 35.2678 51.2711 35.1636 51.3024C35.0557 51.3346 34.9998 51.3204 35.0349 51.2692C35.0699 51.2181 34.9326 51.1944 34.7035 51.2143C34.4877 51.2323 33.9282 51.1802 33.4596 51.0978C32.9191 51.0031 32.3483 50.8232 31.8977 50.6054C31.5067 50.4179 30.9377 50.0647 30.632 49.8223C30.3262 49.5799 29.8197 49.0629 29.5073 48.6718C29.194 48.2817 28.821 47.7268 28.6771 47.4408C28.5342 47.1549 28.3022 46.5573 28.1631 46.1151C28.0211 45.6634 27.8876 44.9779 27.8119 43.7952L28.2767 43.227C28.5323 42.9145 29.0965 42.1901 29.5301 41.6172C29.9627 41.0444 30.3432 40.5652 30.3745 40.5529C30.4048 40.5396 30.4322 40.8379 30.4332 41.2158C30.436 41.7602 30.49 42.0131 30.6935 42.4458C30.8355 42.745 31.1536 43.2081 31.4007 43.4742C31.6477 43.7412 32.0415 44.0546 32.2763 44.1711C32.5111 44.2876 32.8301 44.4135 32.9863 44.4495C33.1577 44.4893 33.3754 44.4665 33.5354 44.3917C33.6812 44.3245 33.8695 44.119 33.9547 43.9372C34.0399 43.7554 34.1337 43.3293 34.1639 42.9903C34.1942 42.6522 34.1857 42.1399 34.1441 41.854C34.1034 41.568 33.9803 41.0557 33.8724 40.7177C33.7635 40.3796 33.5666 39.9109 33.4341 39.6761C33.3015 39.4412 33.0791 39.1013 32.939 38.9185C32.7989 38.7358 32.5111 38.5019 31.9119 38.2083Z" fill="#E8B685"/>
<path d="M30.9179 39.6761C31.2104 39.2329 31.5521 38.7329 31.678 38.5634C31.803 38.3939 31.9573 38.2557 32.0207 38.2557C32.0832 38.2547 32.2829 38.3542 32.4656 38.4754C32.6483 38.5966 32.9778 38.9697 33.1993 39.3049C33.4208 39.6391 33.719 40.2537 33.862 40.6703C34.0873 41.3247 34.1223 41.5765 34.1223 42.5168C34.1223 43.3482 34.0844 43.6844 33.9614 43.9372C33.8733 44.119 33.6811 44.3245 33.5354 44.3917C33.3754 44.4665 33.1576 44.4893 32.9863 44.4495C32.8301 44.4135 32.5111 44.2876 32.2763 44.1711C32.0415 44.0546 31.6477 43.7412 31.4007 43.4742C31.1536 43.2081 30.8355 42.745 30.6944 42.4458C30.4994 42.033 30.4313 41.7299 30.3877 40.481L30.9179 39.6761Z" fill="#F5D5B5"/>
<path d="M27.5885 15.5238C27.6396 15.2587 27.7238 14.897 27.7759 14.7199C27.828 14.5428 27.8762 14.4074 27.8829 14.4197C27.8895 14.4311 27.9226 14.7919 28.0164 16.003L27.4957 16.0058L27.5885 15.5238Z" fill="#42566E"/>
<path d="M27.4304 17.3684C27.4228 17.1033 27.4521 16.858 27.4957 16.824C27.5392 16.7889 27.7163 16.7605 28.2057 16.7605L28.4064 17.5417C28.5395 18.0625 28.5897 18.4808 28.5569 18.7964C28.5294 19.0568 28.4083 19.518 28.0637 20.3711L27.6377 20.3086C27.4029 20.2736 27.1795 20.2281 27.1407 20.2073C27.1019 20.1865 27.1132 19.9886 27.1672 19.767C27.241 19.4574 27.2363 19.3485 27.1435 19.2954C27.0489 19.2405 27.0479 19.2254 27.1407 19.2244C27.206 19.2235 27.242 19.1903 27.2221 19.1515C27.2013 19.1127 27.2429 18.803 27.3149 18.465C27.3859 18.1269 27.4379 17.6326 27.4304 17.3684Z" fill="#42566E"/>
<path d="M17.3646 20.4772C17.4441 20.3077 17.6211 20.0842 17.7593 19.9801C17.8975 19.8759 18.1323 19.7907 18.28 19.7907C18.4286 19.7907 18.5507 19.8011 18.5526 19.8143C18.5536 19.8276 18.4513 20.0729 18.3254 20.3588C18.1995 20.6448 18.0206 21.1571 17.9278 21.4951C17.8066 21.9402 17.7574 22.478 17.7527 23.4363C17.748 24.1655 17.7669 25.2743 17.8398 27.0403L17.4961 27.4636C17.3068 27.6965 17.0673 28.0573 16.9622 28.2656C16.8581 28.474 16.6839 28.9427 16.576 29.3072C16.4681 29.6718 16.2532 30.6093 16.0979 31.3905C15.9436 32.1717 15.7666 33.2152 15.7051 33.7104C15.6435 34.2057 15.6142 34.9935 15.6388 35.4622C15.6634 35.931 15.7107 36.3893 15.7439 36.4802C15.7931 36.6146 15.7117 36.6743 15.3075 36.7965C14.9383 36.9082 14.7859 36.9186 14.7158 36.8391C14.659 36.7737 14.623 35.9669 14.6268 34.8183C14.6316 32.9813 14.6439 32.862 14.9269 31.8166C15.0897 31.2181 15.5186 30.0241 15.8792 29.1652C16.2409 28.3063 16.6441 27.2619 16.7757 26.8452C16.9073 26.4286 17.0626 25.779 17.1194 25.4012C17.1771 25.0234 17.267 24.0225 17.3182 23.1759C17.3702 22.3294 17.4119 21.4023 17.4119 21.1164C17.4109 20.7452 17.3844 20.6363 17.3191 20.7376C17.2689 20.8152 17.2254 20.8579 17.2235 20.8323C17.2216 20.8067 17.285 20.6467 17.3646 20.4772Z" fill="#42566E"/>
<path d="M25.342 23.9988C25.6933 23.371 26.1723 22.4439 26.407 21.9383L26.833 21.0198L27.1644 21.0756C27.3471 21.1059 27.5288 21.1599 27.5705 21.195C27.6112 21.23 27.3196 21.8976 26.922 22.6788C26.5244 23.46 26.0435 24.369 25.5077 25.3008L25.129 25.2336C24.9208 25.1967 24.74 25.1607 24.7267 25.154C24.7135 25.1465 24.9908 24.6266 25.342 23.9988Z" fill="#42566E"/>
<path d="M32.832 22.7735C32.7856 22.7214 32.7743 22.4553 32.8064 22.1816C32.8576 21.7555 32.8945 21.6845 33.0677 21.6845C33.2485 21.6845 33.3176 21.8512 33.7058 23.2233C34.1346 24.7383 34.1384 24.763 33.9424 24.8236C33.8326 24.8577 33.6584 24.8908 33.5543 24.8965C33.3886 24.9069 33.3366 24.781 33.1406 23.888C33.0175 23.3274 32.8784 22.8256 32.832 22.7735Z" fill="#42566E"/>
<path d="M29.8671 25.2355C29.832 24.9751 29.832 24.2403 29.868 23.602C29.9239 22.6229 29.9579 22.4421 30.0876 22.4411C30.1719 22.4402 30.3839 22.4724 30.8762 22.5841L30.8412 23.9571C30.8109 25.1398 30.7759 25.3965 30.5894 25.8036C30.4701 26.064 30.2259 26.5432 29.7203 27.4607L29.4363 27.3187C29.2801 27.2411 29.1523 27.1558 29.1523 27.1293C29.1523 27.1038 29.2319 26.9646 29.3294 26.8216C29.4269 26.6786 29.602 26.3699 29.7194 26.1351C29.8936 25.7866 29.9201 25.6228 29.8671 25.2355Z" fill="#42566E"/>
<path d="M33.6253 25.7137C33.6906 25.69 33.8506 25.654 33.9803 25.6322C34.1109 25.6114 34.2596 25.6019 34.3116 25.6114C34.3637 25.6218 34.4659 25.8604 34.5398 26.1426C34.6619 26.6114 34.6543 26.7666 34.4565 27.9342C34.3372 28.6378 34.2293 29.3622 34.216 29.544C34.2037 29.7267 34.1346 29.9938 34.0636 30.1386C33.9917 30.2835 33.9121 30.399 33.8856 30.3953C33.8601 30.3905 33.6386 30.2087 32.9522 29.5913L33.3697 28.6444C33.6367 28.0374 33.7862 27.5621 33.7853 27.3187C33.7843 27.1104 33.7219 26.6739 33.6452 26.3481C33.5363 25.8813 33.5316 25.7478 33.6253 25.7137Z" fill="#42566E"/>
<path d="M24.0593 26.7506C24.1758 26.386 24.2619 26.0404 24.2505 25.9826C24.2345 25.9059 24.3329 25.9059 24.6169 25.9826C24.9388 26.0697 24.9965 26.1199 24.9539 26.2771C24.9255 26.3813 24.7892 26.7865 24.651 27.1767C24.4342 27.7922 24.4049 28.0052 24.4664 29.6576L24.0877 29.6017C23.8795 29.5714 23.6968 29.5354 23.6816 29.5212C23.6674 29.508 23.6977 29.0279 23.7507 28.455C23.8037 27.8821 23.9429 27.1151 24.0593 26.7506Z" fill="#42566E"/>
<path d="M26.9987 30.4275C26.9854 30.4104 27.3404 29.8271 27.7863 29.1311L28.5967 27.8651L28.946 28.0043C29.1372 28.081 29.3038 28.1501 29.3152 28.1577C29.3265 28.1653 29.0283 28.7713 27.969 30.8394L27.4957 30.6481C27.2354 30.5439 27.0119 30.4445 26.9987 30.4275Z" fill="#42566E"/>
<path d="M31.6326 32.7256C31.5332 32.6423 31.6155 32.4037 32.0482 31.5164L32.5878 30.4104L32.9295 30.6755C33.1169 30.8214 33.3243 31.0098 33.3896 31.095C33.489 31.2238 33.4237 31.4094 32.4666 33.2379L32.1116 33.0334C31.9156 32.9216 31.7007 32.7834 31.6326 32.7256Z" fill="#42566E"/>
<path d="M18.6956 37.0161C18.9067 36.787 19.2418 36.3334 19.4406 36.0077C19.6403 35.6819 19.8306 35.4158 19.8637 35.4158C19.8969 35.4158 19.8552 35.6393 19.771 35.913C19.6877 36.1866 19.5002 36.644 19.3554 36.9309C19.2105 37.2169 18.9322 37.6856 18.7353 37.9725C18.5394 38.2585 18.1721 38.6894 17.9202 38.9289C17.6684 39.1685 17.3125 39.4743 16.7994 39.8522L16.2797 39.5037C15.9711 39.2973 15.617 38.9441 15.4088 38.6354C15.2156 38.3485 15.0452 38.036 15.0292 37.9394C15.0064 37.8021 15.1304 37.7197 15.6161 37.5474C16.2182 37.3334 16.2371 37.3324 16.5154 37.5019C16.6716 37.5966 16.948 37.7036 17.1307 37.7386C17.3655 37.7841 17.5861 37.7491 17.8881 37.6184C18.1219 37.5171 18.4854 37.2462 18.6956 37.0161Z" fill="#42566E"/>
<path d="M7.49565 51.1821C7.47009 51.13 8.53034 50.0221 9.85093 48.7201L12.2535 46.3519L13.1538 46.7174C13.6489 46.9181 14.2983 47.2164 14.5975 47.3802C14.8957 47.544 15.1427 47.6993 15.1456 47.7258C15.1484 47.7514 14.6912 48.1993 14.1289 48.7201C13.5666 49.2409 13.097 49.6992 13.0838 49.738C13.0705 49.7769 12.9001 49.8081 12.7051 49.8081C12.5101 49.8072 12.1371 49.9132 11.8768 50.043C11.6164 50.1736 11.0201 50.6225 10.5515 51.0401C10.0829 51.4577 9.61427 51.8033 9.51013 51.809C9.406 51.8137 9.193 51.809 9.03681 51.7976C8.88061 51.7872 8.48017 51.665 8.14789 51.5268C7.81562 51.3895 7.52215 51.2342 7.49565 51.1821Z" fill="#42566E"/>
<path d="M10.9831 45.6653C11.091 45.5224 11.3571 45.262 11.5748 45.0877C11.9449 44.7913 12.0036 44.7752 12.4912 44.8273C12.778 44.8586 13.31 44.9855 13.6745 45.1086C14.0389 45.2326 14.6571 45.476 15.0471 45.6492C15.4381 45.8235 15.8726 46.0309 16.2712 46.2572L14.9998 47.5582L14.1005 47.1312C13.6063 46.8963 12.8395 46.5715 12.3965 46.4106C11.9535 46.2505 11.411 46.0754 10.7872 45.9257L10.9831 45.6653Z" fill="#4A84BA"/>
<path d="M21.7883 33.0002L22.1168 32.4084C22.2966 32.0827 22.4737 31.8175 22.5087 31.8185C22.5437 31.8194 24.1814 32.3516 26.1467 33.0021C28.112 33.6517 29.7951 34.183 29.886 34.1811C29.9769 34.1792 30.3925 34.397 30.809 34.664C31.2255 34.931 31.9166 35.4121 32.3454 35.7321C32.7742 36.0522 33.1255 36.3675 33.1264 36.4328C33.1273 36.4982 33.0857 36.573 33.0336 36.5985C32.9816 36.6241 32.3785 37.4877 31.6941 38.5161C31.0087 39.5444 30.1634 40.7697 29.815 41.2385C29.4676 41.7072 28.8967 42.4524 28.5484 42.8956C28.2 43.3378 27.7352 43.9126 27.5156 44.172C27.2969 44.4315 26.9371 44.8368 26.7175 45.0716C26.4979 45.3074 26.319 45.5422 26.3199 45.5943C26.3199 45.6464 25.7652 46.2325 25.0855 46.8963C24.4067 47.5601 23.7658 48.1463 23.6617 48.1984C23.4904 48.2836 23.4591 48.2457 23.3361 47.7959C23.2613 47.5222 23.0322 47.0431 22.8268 46.7306C22.6213 46.4181 22.0761 45.8055 21.6141 45.3699C21.1521 44.9343 20.3484 44.2592 19.8277 43.87C19.3071 43.4808 18.6312 43.0064 17.7697 42.4695L18.0887 42.2346C18.2639 42.1049 18.7618 41.658 19.1944 41.2404C19.6271 40.8228 20.1998 40.1618 20.4677 39.7707C20.7356 39.3806 21.0925 38.7623 21.26 38.3977C21.4267 38.0331 21.6557 37.4157 21.7675 37.0247C21.8886 36.6023 21.9909 35.9111 22.0212 35.3202C22.0552 34.629 22.0278 34.1242 21.7883 33.0002Z" fill="#E6A467"/>
<path d="M10.6452 53.1347C11.0702 52.932 11.5937 52.5021 12.7193 51.4311C13.5476 50.6424 14.2936 49.9966 14.3759 49.9956C14.4592 49.9947 14.9525 50.1045 15.4731 50.239C15.9938 50.3734 16.824 50.6357 17.3191 50.8204C17.8133 51.006 18.5488 51.3223 18.9521 51.5249C19.3554 51.7266 19.6857 51.934 19.6857 51.986C19.6857 52.0381 19.5731 52.3042 19.4349 52.5779C19.2976 52.8515 18.7183 53.8212 18.1484 54.7321C17.5785 55.644 16.5968 57.1136 15.9673 57.999C15.3368 58.8844 13.9783 60.7489 12.9465 62.1418C11.9156 63.5347 11.0181 64.6739 10.9528 64.6729C10.8875 64.672 10.3867 64.3841 9.8405 64.0337C9.29334 63.6834 8.18575 62.9022 7.37919 62.2971C6.57169 61.692 5.5493 60.8786 5.10721 60.4894C4.66418 60.1002 4.08956 59.587 3.3559 58.9175L3.55375 58.695C3.66261 58.5728 4.08861 57.9829 4.49946 57.3835C4.91031 56.7841 5.23785 56.2728 5.22839 56.2472C5.21797 56.2216 5.45274 55.9262 5.74999 55.5919C6.04725 55.2577 6.35396 54.8884 6.43253 54.7709C6.51016 54.6535 6.72316 54.448 6.90586 54.3136C7.08762 54.1801 7.47102 53.9575 7.75786 53.8193C8.13557 53.6384 8.52465 53.5466 9.17784 53.4869C9.85092 53.4254 10.2201 53.3364 10.6452 53.1347Z" fill="#E6A467"/>
<path d="M19.3544 39.6344C19.771 39.214 20.2604 38.6051 20.4431 38.2812C20.6258 37.9583 20.7971 37.6923 20.8236 37.6904C20.8511 37.6885 20.8464 37.7832 20.8132 37.9006C20.7791 38.018 20.6343 38.3485 20.4904 38.6344C20.3465 38.9204 20.0114 39.427 19.7445 39.7594C19.4406 40.1391 18.9947 40.5387 18.5498 40.8323C18.1597 41.0898 17.5624 41.3853 17.2244 41.4894C16.8865 41.5936 16.5239 41.6637 16.4198 41.6457C16.2948 41.6248 16.4245 41.5424 16.7985 41.4042C17.1108 41.2896 17.6438 41.016 17.9818 40.7972C18.3197 40.5785 18.9379 40.0548 19.3544 39.6344Z" fill="#EDC291"/>
<path d="M13.4141 39.9128C13.3592 39.6003 13.3441 39.089 13.3801 38.7765C13.416 38.464 13.4653 38.2301 13.4889 38.2557C13.5126 38.2812 13.5969 38.6013 13.6773 38.9659C13.7578 39.3304 13.9178 39.7887 14.0323 39.9848C14.1478 40.1808 14.3494 40.3863 14.4791 40.4421C14.6467 40.5131 14.8673 40.5122 15.2365 40.4383C15.5233 40.3815 15.991 40.2262 16.2778 40.0927C16.5646 39.9592 17.001 39.7045 17.2481 39.5264C17.4952 39.3484 17.6978 39.2452 17.6978 39.2973C17.6978 39.3494 17.4744 39.588 17.2008 39.8266C16.9272 40.0662 16.4056 40.409 16.0411 40.5898C15.5943 40.8105 15.1929 40.9326 14.2425 41.0141L13.8401 41.5765C13.4643 42.1011 13.452 42.1381 13.6508 42.1352C13.7682 42.1343 13.896 42.1551 13.9348 42.1826C13.9736 42.21 13.9528 42.318 13.8875 42.4221C13.7957 42.5689 13.6669 42.6125 13.3195 42.6115C12.9531 42.6115 12.813 42.6636 12.5622 42.8918C12.3927 43.0462 12.2223 43.174 12.1835 43.1759C12.1447 43.1778 12.1362 43.0196 12.1665 42.8246C12.1977 42.6115 12.4779 42.0718 13.5126 40.4809L13.4141 39.9128Z" fill="#EDC291"/>
<path d="M14.0295 42.6437C14.0162 42.6257 14.0531 42.5235 14.1109 42.4165C14.1961 42.2574 14.2718 42.2328 14.5132 42.2829C14.677 42.318 15.1304 42.4524 15.5205 42.5831C15.9114 42.7128 16.7634 43.085 17.4138 43.4107C18.0651 43.7355 18.9587 44.226 19.4018 44.5006C19.8448 44.7752 20.48 45.2184 20.8142 45.4864C21.1483 45.7544 21.6169 46.1918 21.8555 46.4598C22.0941 46.7278 22.4027 47.1539 22.5409 47.4067C22.68 47.6596 22.8078 48.0554 22.8249 48.2855C22.8552 48.6785 22.84 48.7088 22.5731 48.7921C22.4169 48.8413 22.1935 48.8555 21.8631 48.7665L22.0524 48.4114C22.1575 48.2164 22.2408 47.9067 22.2389 47.7249C22.2361 47.438 22.1367 47.2969 21.5052 46.6795C21.1029 46.2865 20.3058 45.6559 19.7331 45.2781C19.1604 44.9002 18.2866 44.3842 17.7924 44.1304C17.2983 43.8776 16.5315 43.5215 16.0885 43.3397C15.6454 43.1579 15.0064 42.9344 14.6685 42.8426C14.3305 42.7507 14.0427 42.6617 14.0295 42.6437Z" fill="#EDC291"/>
<path d="M1.22971 54.9215C1.16534 54.0939 1.1767 53.8752 1.30261 53.6176C1.38497 53.4472 1.49762 53.3231 1.55252 53.3421C1.60743 53.361 1.68695 53.5428 1.7305 53.7464C1.7731 53.95 1.79487 54.7416 1.77783 55.5048C1.76079 56.269 1.71535 56.929 1.67654 56.9726C1.63772 57.0161 1.5156 56.9669 1.40579 56.8627C1.24581 56.7112 1.21646 56.5985 1.25717 56.2946C1.28462 56.0862 1.27231 55.4679 1.22971 54.9215Z" fill="#EDC291"/>
<path d="M35.7979 2.03588C35.7449 1.77548 35.724 1.51981 35.7534 1.46773C35.7818 1.41565 35.884 1.47909 35.9806 1.60977C36.0771 1.7395 36.2362 2.05956 36.3356 2.31996C36.434 2.58036 36.5694 3.13431 36.6357 3.55096C36.7171 4.06324 36.7369 4.7848 36.6981 5.77623C36.6669 6.58395 36.5751 7.73446 36.4937 8.33292C36.4132 8.93137 36.2778 9.82716 36.1945 10.3215C36.1103 10.8158 36.0099 11.2419 35.9711 11.2684C35.9323 11.2949 35.9153 11.4009 35.9342 11.5051C35.9522 11.6093 35.9465 11.6623 35.92 11.6235C35.8944 11.5847 35.7089 11.8829 35.5072 12.2863C35.3056 12.6897 34.9695 13.2124 34.7603 13.4463C34.5511 13.6802 34.2472 13.9472 33.791 14.2038L34.0371 13.6594C34.1725 13.3601 34.3883 12.8374 34.5161 12.4994C34.6439 12.1613 34.8929 11.3299 35.068 10.6529C35.2441 9.97583 35.4542 9.0166 35.5347 8.5223C35.6152 8.02801 35.7316 7.19661 35.7931 6.6758C35.8547 6.155 35.902 5.00449 35.9001 4.11911C35.8973 3.23374 35.8518 2.29629 35.7979 2.03588Z" fill="#E0A371"/>
<path d="M23.6286 7.48069C23.8132 7.14264 24.0688 6.72694 24.1956 6.55744C24.3234 6.38794 24.4427 6.24969 24.4616 6.24969C24.4806 6.24969 24.33 6.59058 24.1265 7.00723C23.923 7.42387 23.5907 8.18046 23.3881 8.68801C23.1855 9.19557 22.8873 10.0374 22.7274 10.5582C22.5664 11.079 22.3279 11.9634 22.1963 12.5231C22.0647 13.0827 21.8725 14.0627 21.7684 14.701C21.6633 15.3392 21.51 16.521 21.4266 17.3287C21.3272 18.2889 21.2752 19.6808 21.2752 21.3531C21.2752 22.9496 21.3339 24.5679 21.4314 25.6616C21.5166 26.6256 21.6396 27.7751 21.7031 28.2183C21.8205 29.0222 21.8195 29.0241 21.5573 29.473C21.4134 29.7201 21.2761 29.9123 21.2534 29.8991C21.2307 29.8858 21.1464 29.258 21.0669 28.5024C20.9874 27.7467 20.8785 26.1284 20.8246 24.9041C20.7583 23.3824 20.7574 22.0046 20.8236 20.5482C20.8776 19.3769 20.9628 18.0341 21.0139 17.5654C21.065 17.0967 21.1748 16.2445 21.2572 15.6716C21.3386 15.0987 21.51 14.1186 21.6359 13.4936C21.7618 12.8687 22.0174 11.8252 22.2039 11.1737C22.3903 10.5232 22.7113 9.56392 22.9176 9.04311C23.124 8.5223 23.444 7.81874 23.6286 7.48069Z" fill="#E0A371"/>
<path d="M25.8911 13.5495C26.0965 13.3204 26.4354 13.0533 26.6437 12.9567C26.9012 12.8374 27.1284 12.7996 27.3537 12.8393C27.5354 12.8706 27.8024 12.9567 27.9453 13.0297C28.0883 13.1026 28.2274 13.2048 28.253 13.2569C28.2786 13.309 28.2606 13.4264 28.2123 13.5173C28.1574 13.6196 28.04 13.6717 27.9046 13.6527C27.7835 13.6366 27.5354 13.7219 27.3537 13.8421C27.1634 13.9681 26.922 14.2635 26.549 15.0087V20.6903L26.0927 21.7319C25.8419 22.3048 25.5437 22.9865 25.4301 23.247C25.3174 23.5074 24.9264 24.1664 23.8984 25.7004L23.834 25.279C23.799 25.0471 23.7677 24.2819 23.7639 23.5784C23.7611 22.8748 23.8009 21.7035 23.8539 20.9743C23.9059 20.2452 24.0158 19.2008 24.0972 18.6544C24.1786 18.1071 24.3717 17.1696 24.527 16.5711C24.6813 15.9727 24.9681 15.1413 25.1631 14.7246C25.3581 14.308 25.6857 13.7796 25.8911 13.5495Z" fill="#E0A371"/>
<path d="M36.311 38.4649C35.9484 37.7727 35.689 37.1838 35.7354 37.1563C35.7818 37.1298 35.8319 37.1525 35.8471 37.2084C35.8613 37.2633 35.9266 37.3078 35.9919 37.3059C36.0573 37.304 36.3479 37.5493 36.6376 37.8504C36.9272 38.1515 37.2775 38.589 37.4148 38.8238C37.553 39.0587 37.8199 39.6334 38.0093 40.1022C38.1986 40.5709 38.5384 41.6788 38.7647 42.5642C38.9909 43.4495 39.2257 44.4504 39.2863 44.7894C39.3469 45.1284 39.4283 45.7884 39.4681 46.2572C39.5078 46.7259 39.5031 47.4285 39.4576 47.8196C39.4122 48.2097 39.291 48.7106 39.1869 48.9322C39.0828 49.1538 38.9654 49.3347 38.9266 49.3347C38.8878 49.3356 38.8272 48.6851 38.7921 47.8906C38.7571 47.0961 38.6388 45.9352 38.529 45.3102C38.4201 44.6853 38.1976 43.6626 38.0367 43.0376C37.8748 42.4127 37.5691 41.4108 37.357 40.8124C37.145 40.2139 36.6745 39.1571 36.311 38.4649Z" fill="#E0A371"/>
<path d="M30.0043 1.24803C30.2391 1.11262 30.6007 0.949747 30.809 0.886303C31.0172 0.822859 31.2198 0.766991 31.2586 0.76415C31.2975 0.760362 31.4253 0.793504 31.5426 0.83801C31.66 0.882515 31.8371 1.08516 31.9355 1.2878C32.069 1.56051 32.1144 1.85406 32.1106 2.41464C32.1078 2.83128 32.034 3.44868 31.9459 3.78767C31.8588 4.12667 31.6089 4.74217 31.3921 5.15598C31.1753 5.56978 30.8279 6.08396 30.6197 6.29891C30.4114 6.51292 30.081 6.73923 29.886 6.80078C29.5831 6.89642 29.4856 6.8879 29.2233 6.74207C29.0113 6.62465 28.8134 6.37088 28.5843 5.92298C28.27 5.30843 28.253 5.22416 28.253 4.31795C28.253 3.52254 28.289 3.2858 28.466 2.91177C28.5834 2.66462 28.8816 2.24419 29.1287 1.9781C29.3757 1.71202 29.7696 1.38344 30.0043 1.24803Z" fill="#F5D5B5"/>
<path d="M14.5028 44.4154C14.7764 44.262 15.2497 44.0319 15.5545 43.905C15.9919 43.7223 16.1632 43.6929 16.3592 43.7658C16.4965 43.817 17.0664 44.1001 17.6249 44.3946C18.1834 44.69 18.6416 44.9637 18.6425 45.0025C18.6435 45.0413 18.4636 45.0735 18.2421 45.0726C18.0206 45.0716 17.6268 45.1332 17.3664 45.2089C17.1061 45.2847 16.7653 45.4419 16.6091 45.5593C16.3725 45.7354 16.2854 45.7544 16.0885 45.6682C15.9578 45.6123 15.4362 45.3699 14.0058 44.6947L14.5028 44.4154Z" fill="#42566E"/>
</svg>
