<svg width="24" height="24" viewBox="0 0 24 24" fill="none" xmlns="http://www.w3.org/2000/svg">
<path d="M4.56805 10.9984C4.56805 10.9984 12.0607 7.58939 14.6593 6.389C15.6555 5.90888 19.0337 4.37237 19.0337 4.37237C19.0337 4.37237 20.5929 3.70021 20.4629 5.33268C20.4196 6.00491 20.0731 8.35758 19.7266 10.9024C19.2069 14.5035 18.6439 18.4406 18.6439 18.4406C18.6439 18.4406 18.5572 19.545 17.821 19.737C17.0847 19.9291 15.872 19.0649 15.6555 18.8728C15.4822 18.7288 12.4072 16.5681 11.2811 15.5118C10.978 15.2237 10.6315 14.6475 11.3244 13.9753C12.8836 12.3908 14.7459 10.4222 15.872 9.17388C16.3917 8.59767 16.9114 7.25328 14.7459 8.88574C11.6709 11.2385 8.63922 13.4471 8.63922 13.4471C8.63922 13.4471 7.94623 13.9273 6.64694 13.4951C5.34759 13.0631 3.83173 12.4868 3.83173 12.4868C3.83173 12.4868 2.79235 11.7666 4.56805 10.9984Z" fill="#006B9C"/>
</svg>
