<svg width="24" height="24" viewBox="0 0 24 24" fill="none" xmlns="http://www.w3.org/2000/svg">
<path d="M6.53562 20.5269C6.53562 20.1725 6.53562 19.8182 6.53562 19.4638C6.53832 19.4493 6.53777 19.4345 6.53402 19.4202C6.53027 19.4059 6.5234 19.3925 6.51382 19.3808C6.50424 19.3691 6.49217 19.3593 6.47835 19.352C6.46453 19.3448 6.44925 19.3403 6.43347 19.3387C5.48508 19.0892 4.60973 18.6447 3.87264 18.0384C3.3356 17.5859 2.88845 17.0497 2.55154 16.4542C2.07667 15.5938 1.76065 14.666 1.61655 13.7091C1.43802 12.5087 1.37602 11.2959 1.43129 10.0853C1.44341 9.52089 1.47457 8.96289 1.54383 8.39848C1.65429 7.32593 1.94644 6.27618 2.40956 5.28781C2.98143 4.07256 4.01887 3.0964 5.32187 2.54753C6.20948 2.17138 7.14326 1.89677 8.10259 1.72977C9.04337 1.56475 9.99589 1.46347 10.9526 1.42672C11.8149 1.39848 12.6783 1.41026 13.5394 1.462C14.7718 1.51017 15.9931 1.69921 17.1754 2.02481C18.0521 2.25882 18.886 2.61282 19.6497 3.07506C20.3938 3.54809 20.9956 4.18874 21.3985 4.93665C21.8721 5.81019 22.194 6.74741 22.3525 7.71381C22.4554 8.28756 22.523 8.86627 22.5551 9.44713C22.6001 10.1671 22.5949 10.8902 22.5655 11.607C22.536 12.3237 22.4702 13.0196 22.375 13.7219C22.2546 14.776 21.9047 15.7966 21.3465 16.7219C20.6199 17.8926 19.4559 18.7766 18.0741 19.2073C17.1292 19.5137 16.1535 19.7318 15.1617 19.8583C14.4363 19.9513 13.7091 20.0186 12.9784 20.0459C12.4191 20.0699 11.8599 20.0635 11.3006 20.0555C10.9837 20.0555 10.6686 20.0266 10.3535 20.001C10.3225 19.9956 10.2906 19.9988 10.2616 20.0102C10.2326 20.0216 10.208 20.0407 10.1907 20.0651C9.55355 20.7738 8.89214 21.4633 8.22553 22.1496C8.1041 22.2748 7.96351 22.3828 7.80824 22.4703C7.70632 22.5322 7.59011 22.571 7.46898 22.5837C7.34785 22.5964 7.2252 22.5825 7.11094 22.5431C6.99668 22.5038 6.89401 22.4402 6.81122 22.3573C6.72842 22.2745 6.66782 22.1747 6.63432 22.0662C6.56833 21.8733 6.53561 21.672 6.53736 21.4697C6.53562 21.1522 6.53562 20.8396 6.53562 20.5269ZM7.30612 21.8722L7.3875 21.8016L8.83327 20.3152C9.38964 19.7433 9.94544 19.1709 10.5007 18.598C10.528 18.563 10.5648 18.5354 10.6074 18.5179C10.6499 18.5005 10.6968 18.4938 10.7431 18.4985C10.9318 18.5162 11.1205 18.5226 11.311 18.5242C11.9689 18.5242 12.6269 18.5242 13.2848 18.4809C13.8822 18.4376 14.4778 18.3703 15.07 18.2837C15.7075 18.1809 16.3387 18.0466 16.9607 17.8812C18.3459 17.5365 19.4177 16.7989 20.0912 15.6043C20.4888 14.8699 20.7382 14.0744 20.8271 13.2569C20.9323 12.4864 20.9953 11.7115 21.0158 10.9351C21.0465 9.95982 20.9746 8.98407 20.8011 8.02167C20.6808 7.32441 20.4643 6.64433 20.157 5.99813C19.7657 5.19641 19.2116 4.53259 18.358 4.10607C17.049 3.45187 15.6327 3.16004 14.1731 3.01092C13.7593 2.96923 13.3454 2.94679 12.9299 2.93235C12.079 2.89173 11.2263 2.89601 10.376 2.94518C9.76445 2.98721 9.15619 3.06324 8.5545 3.17287C7.66965 3.32224 6.81363 3.59243 6.01446 3.97459C5.55114 4.19139 5.1308 4.47926 4.77127 4.82602C4.18858 5.42913 3.76115 6.14676 3.52116 6.92492C3.23645 7.83119 3.08103 8.76807 3.05886 9.71169C3.00315 10.6553 3.01587 11.6013 3.09695 12.5434C3.14739 13.104 3.24875 13.6597 3.39995 14.2045C3.62492 15.0536 4.06134 15.8422 4.67431 16.5071C5.33607 17.1854 6.19138 17.6768 7.14163 17.9245C7.2611 17.9582 7.31478 17.9967 7.31478 18.1217C7.30439 18.5835 7.31478 19.0453 7.31478 19.5071L7.30612 21.8722Z" fill="#006B9C"/>
<path d="M6.09427 7.55182C6.08215 7.20066 6.2882 6.94572 6.53753 6.71642C6.86636 6.42471 7.22866 6.16716 7.61796 5.94838C7.79547 5.84699 8.00655 5.80836 8.21236 5.83959C8.41818 5.87082 8.60491 5.9698 8.73821 6.11834C9.20922 6.57685 9.63081 7.07682 9.99698 7.61114C10.1783 7.8515 10.3152 8.1181 10.4021 8.40004C10.4369 8.51006 10.4391 8.62669 10.4087 8.7378C10.3782 8.84891 10.3162 8.95042 10.229 9.03179C10.0292 9.21337 9.81636 9.38212 9.59182 9.53687C9.47868 9.62037 9.39455 9.73284 9.34991 9.86028C9.30527 9.98772 9.30209 10.1245 9.34076 10.2536C9.47942 10.8598 9.79366 11.4197 10.2498 11.8731C10.804 12.4997 11.5181 12.9885 12.3275 13.2953C12.5264 13.39 12.7543 13.4189 12.9734 13.3771C13.0933 13.3468 13.1999 13.2823 13.2781 13.1927C13.3993 13.05 13.5309 12.9121 13.64 12.7598C13.7814 12.5698 13.9975 12.4385 14.242 12.3938C14.4865 12.3492 14.7402 12.3948 14.9489 12.5209C15.5359 12.8362 16.09 13.2012 16.6042 13.6112C16.7254 13.7074 16.8518 13.8004 16.973 13.8982C17.1164 13.9995 17.22 14.1416 17.2679 14.3026C17.3157 14.4636 17.3052 14.6348 17.2379 14.7897C17.131 15.0503 16.975 15.2914 16.7774 15.5017C16.5317 15.8178 16.2188 16.0841 15.858 16.2841C15.6854 16.378 15.4916 16.4331 15.292 16.445C15.0923 16.457 14.8924 16.4255 14.7083 16.3531C13.3074 15.8308 11.9985 15.118 10.8246 14.2382C9.67649 13.3629 8.67312 12.3364 7.84651 11.1916C7.15097 10.2439 6.59762 9.21308 6.20162 8.12745C6.15946 7.99614 6.12478 7.86288 6.09774 7.72819C6.09004 7.66967 6.08888 7.61056 6.09427 7.55182Z" fill="#006B9C"/>
<path d="M12.0702 5.84609C13.2423 5.86616 14.3696 6.26653 15.2555 6.9774C16.1415 7.68828 16.73 8.66455 16.9183 9.73604C16.9942 10.1256 17.0347 10.5204 17.0395 10.9162C17.0395 11.0092 17.0136 11.0765 16.9062 11.0861C16.7989 11.0958 16.7711 11.0108 16.7711 10.9258C16.7872 10.1251 16.6098 9.33131 16.2517 8.60241C15.9502 8.00347 15.5035 7.47703 14.9464 7.06404C14.3894 6.65106 13.7369 6.36266 13.0399 6.2213C12.6713 6.14228 12.2944 6.10141 11.9161 6.09944C11.8793 6.10002 11.8426 6.0957 11.8071 6.08661C11.7768 6.07872 11.7511 6.06026 11.7353 6.03514C11.7194 6.01001 11.7148 5.98018 11.7222 5.95192C11.7224 5.93852 11.7255 5.92529 11.7313 5.913C11.7371 5.90072 11.7455 5.88963 11.756 5.88038C11.7665 5.87112 11.7788 5.86389 11.7924 5.85911C11.8059 5.85432 11.8203 5.85208 11.8348 5.85251C11.9127 5.84289 11.9923 5.84609 12.0702 5.84609Z" fill="#006B9C"/>
<path d="M15.4113 10.192C15.4055 9.74652 15.287 9.30852 15.0654 8.91311C14.8438 8.51771 14.5252 8.1759 14.1352 7.9151C13.6801 7.61899 13.1509 7.43523 12.5977 7.38115C12.5042 7.36993 12.4107 7.36512 12.3155 7.3555C12.2202 7.34588 12.1631 7.309 12.1718 7.21921C12.1804 7.12941 12.241 7.09734 12.3449 7.10376C13.879 7.19034 15.1845 7.99367 15.5862 9.48968C15.6597 9.77813 15.6963 10.0736 15.6953 10.37C15.6953 10.3972 15.6953 10.4245 15.6953 10.4501C15.6953 10.5303 15.6399 10.5832 15.555 10.5816C15.5362 10.581 15.5177 10.5769 15.5007 10.5695C15.4837 10.562 15.4684 10.5515 15.456 10.5384C15.4435 10.5254 15.434 10.5101 15.4281 10.4935C15.4222 10.477 15.42 10.4595 15.4217 10.4421C15.4079 10.3668 15.4113 10.2898 15.4113 10.192Z" fill="#006B9C"/>
<path d="M12.7288 8.40519C13.5703 8.4581 14.1573 8.83972 14.3183 9.6687C14.3379 9.7749 14.3517 9.88192 14.3599 9.98939C14.3599 10.076 14.3391 10.1497 14.2369 10.1497C14.1348 10.1497 14.1002 10.0856 14.0967 9.98939C14.0957 9.67162 13.99 9.3617 13.7937 9.10108C13.5874 8.86503 13.2912 8.71124 12.9661 8.67136C12.8934 8.65877 12.8199 8.6502 12.7462 8.6457C12.625 8.6457 12.5574 8.58958 12.573 8.503C12.5886 8.41641 12.6613 8.40038 12.7288 8.40519Z" fill="#006B9C"/>
</svg>
