<svg width="24" height="24" viewBox="0 0 24 24" fill="none" xmlns="http://www.w3.org/2000/svg">
<path d="M2.11768 21.8824L3.53689 16.6143C2.39233 14.5621 2.02869 12.1674 2.5127 9.8696C2.99672 7.57178 4.29592 5.52499 6.1719 4.10481C8.04788 2.68463 10.3748 1.98633 12.7257 2.13805C15.0766 2.28976 17.2937 3.28132 18.9702 4.93077C20.6468 6.58021 21.6703 8.77691 21.8529 11.1178C22.0355 13.4586 21.3651 15.7866 19.9645 17.6745C18.5639 19.5624 16.5273 20.8836 14.2282 21.3957C11.9291 21.9078 9.52183 21.5764 7.44812 20.4623L2.11768 21.8824ZM7.70515 18.491L8.03481 18.6859C9.53684 19.5732 11.2912 19.9404 13.0245 19.7302C14.7577 19.52 16.3726 18.7443 17.6173 17.524C18.8621 16.3036 19.6668 14.7072 19.9061 12.9834C20.1455 11.2596 19.8059 9.50534 18.9405 7.99396C18.075 6.48258 16.7322 5.29899 15.1213 4.62763C13.5104 3.95627 11.7219 3.83486 10.0346 4.28232C8.34724 4.72978 6.8558 5.72097 5.79269 7.10142C4.72958 8.48188 4.15451 10.1741 4.1571 11.9143C4.15569 13.3572 4.55608 14.7722 5.31371 16.0017L5.52045 16.3414L4.72703 19.2817L7.70515 18.491Z" fill="#006B9C"/>
<path fill-rule="evenodd" clip-rule="evenodd" d="M15.7736 13.6034C15.572 13.4281 15.336 13.3047 15.0835 13.2427C14.831 13.1806 14.5687 13.1815 14.3165 13.2452C13.9377 13.4149 13.6929 14.0558 13.4481 14.3762C13.3965 14.453 13.3207 14.5069 13.2348 14.5277C13.149 14.5485 13.059 14.5349 12.9819 14.4893C11.595 13.9037 10.4324 12.8298 9.6831 11.442C9.61919 11.3554 9.58894 11.2454 9.59872 11.1352C9.60851 11.0251 9.65756 10.9233 9.73555 10.8513C10.0086 10.56 10.209 10.1991 10.3184 9.80206C10.3427 9.36413 10.2496 8.92791 10.0503 8.54543C9.89619 8.0092 9.60294 7.53172 9.20518 7.16942C9.00003 7.06995 8.77256 7.03659 8.55021 7.07338C8.32787 7.11018 8.12015 7.21554 7.95211 7.37676C7.66039 7.64809 7.42884 7.98652 7.27451 8.3671C7.12019 8.74769 7.04702 9.16075 7.06039 9.57587C7.06129 9.80898 7.08869 10.0411 7.14199 10.267C7.27732 10.8098 7.48545 11.3284 7.75978 11.8064C7.9577 12.1725 8.17366 12.527 8.40671 12.8682C9.16412 13.9891 10.1162 14.9408 11.2101 15.6705C11.759 16.0413 12.3457 16.3428 12.9586 16.569C13.5952 16.8801 14.2981 16.9995 14.9926 16.9146C15.3883 16.85 15.7633 16.6816 16.0844 16.4241C16.4056 16.1666 16.6631 15.828 16.8343 15.438C16.935 15.2025 16.9655 14.9391 16.9218 14.6841C16.8169 14.1626 16.1699 13.8547 15.7736 13.6034Z" fill="#006B9C"/>
</svg>
