<svg width="100" height="102" viewBox="0 0 100 102" fill="none" xmlns="http://www.w3.org/2000/svg">
<path fill-rule="evenodd" clip-rule="evenodd" d="M50.7955 0.00553903C54.8826 -0.0343026 56.4699 0.125064 59.9221 1.00158C62.2236 1.55936 65.7949 2.83429 67.8584 3.79049C69.9218 4.78653 72.6994 6.38019 74.0089 7.29655C75.3184 8.25275 77.3818 10.0058 78.5722 11.1612C79.7627 12.3564 81.707 14.5477 82.8578 16.1015C84.0482 17.6155 85.7942 20.4841 86.7465 22.4762C87.6989 24.4284 88.929 27.8548 89.5242 30.0461C90.3178 33.1537 90.5956 35.345 90.9527 45.9827L95.4764 54.7479C98.0953 59.7679 100 63.9911 100 64.6286C100 65.2262 99.881 65.9832 99.6825 66.3418C99.5238 66.7004 98.9286 67.2581 98.2937 67.537C97.6588 67.8558 95.9129 68.0948 90.8734 68.0948V69.9674C90.8734 71.0431 90.675 72.1188 90.3972 72.3579C90.1194 72.6367 89.6036 72.8758 89.2068 72.8758C88.8099 72.8758 88.2941 72.4774 88.056 71.9594C87.7782 71.4415 87.6989 70.2463 87.8179 69.0909C87.9766 67.6565 88.3338 66.8199 89.0877 66.1027C90.0004 65.2262 90.4765 65.1067 93.651 64.9872C95.6351 64.9473 97.2223 64.8278 97.2223 64.7083C97.2223 64.5887 95.1192 60.5249 87.8973 46.7796L87.6592 40.0065C87.4211 34.349 87.2227 32.6756 86.3497 29.7274C85.7942 27.815 84.7625 25.1456 84.0879 23.7511C83.3736 22.3965 82.1038 20.2052 81.2309 18.8904C80.3579 17.5757 78.2945 15.1453 76.6279 13.5118C74.9613 11.8385 72.2629 9.6472 70.636 8.65116C69.0091 7.61528 66.3108 6.26067 64.6839 5.58336C63.0569 4.9459 60.1999 4.10922 58.3349 3.75065C55.7556 3.23271 53.6922 3.11318 49.6051 3.23271C46.3909 3.35223 43.2958 3.71081 41.8673 4.10922C40.5578 4.4678 38.1372 5.34431 36.5103 6.06146C34.8834 6.77861 32.5422 8.0137 31.3518 8.85037C30.1614 9.6472 28.6138 10.7229 26.7885 12.2767L31.1534 16.6593L32.4232 15.5039C33.1374 14.8266 34.0898 14.3087 34.5263 14.3087C34.9628 14.3087 36.5103 15.4641 40.6768 19.3685L44.4862 17.6952L44.4465 14.1891C44.4465 11.6393 44.6053 10.5636 45.0417 10.1253C45.3592 9.80657 46.2322 9.40815 46.9068 9.28863C47.621 9.1691 49.9622 9.12926 52.105 9.20895C55.7556 9.32847 56.0731 9.40815 56.7873 10.3245C57.4222 11.1213 57.581 11.9182 57.5413 17.8944L60.9142 19.3685L63.5728 16.8585C65.2791 15.2649 66.5886 14.3087 67.1441 14.3087C67.7393 14.3087 69.2869 15.5836 71.7074 18.0139C74.128 20.4443 75.3978 21.9981 75.3978 22.5559C75.3978 23.1535 74.4454 24.4683 70.3186 28.8508L71.8265 32.2374H75.0803C77.3818 32.2374 78.6516 32.4366 79.2468 32.835C80.1198 33.3928 80.1595 33.6717 80.1595 38.6917C80.1595 43.154 80.0404 44.1102 79.4452 44.7078C78.8897 45.2656 78.1357 45.4249 71.8265 45.3851L70.2392 49.1701L72.8185 51.8394C74.247 53.3534 75.3978 54.8674 75.3978 55.226C75.3581 55.6244 73.7311 57.6165 71.7074 59.6484C69.0091 62.3576 67.779 63.3138 67.0647 63.3138C66.3902 63.3138 65.3188 62.5568 61.311 58.4531L57.5016 59.9273L57.5413 63.1146C57.581 65.7043 57.4222 66.5011 56.7477 67.3777C55.954 68.4932 55.9144 68.4932 51.0733 68.4932C47.4226 68.4932 46.0338 68.3339 45.3195 67.8956C44.5259 67.3378 44.4465 66.9792 44.4465 60.1265L40.8752 58.5328L38.296 60.9233C36.431 62.6365 35.3993 63.3138 34.6056 63.3138C33.931 63.3138 33.0581 62.8357 30.955 60.7241L25.7171 65.9035L26.4313 67.0988C27.0662 68.055 27.225 69.2901 27.344 74.2703C27.4234 78.1747 27.344 80.5652 27.0265 81.1628C26.7885 81.6409 26.2726 82.0394 25.8758 82.0394C25.5187 82.0394 24.9631 81.8402 24.6854 81.5613C24.3282 81.2027 24.2092 79.3301 24.2092 74.9476C24.2092 70.4853 24.0901 68.812 23.6933 68.6526C23.4156 68.4932 21.9474 69.6885 19.9633 71.7204C16.7095 75.0272 16.7095 75.0671 16.6698 77.1787C16.6698 79.0512 16.7888 79.37 18.0586 80.4457C19.011 81.2824 19.5268 82.0792 19.6856 83.1549C19.8046 84.0314 19.7252 85.1072 19.3681 85.7845C19.0903 86.4219 18.4158 87.2984 17.8602 87.6969C17.2253 88.175 16.2333 88.4539 15.1619 88.414C13.8128 88.414 13.2572 88.175 12.1065 87.0196C10.9954 85.904 10.7176 85.3064 10.7176 84.151C10.7176 83.3143 11.0748 82.0394 11.5113 81.3621C11.9477 80.6449 12.662 79.9676 13.0985 79.8481C13.8128 79.6887 13.8921 79.3301 13.9318 73.8718L21.4712 66.3019L19.4078 63.513C18.257 61.9592 16.4714 58.9312 15.4397 56.74C14.408 54.5487 13.2175 51.2418 12.7414 49.3693C12.3049 47.4967 11.789 44.668 11.6303 43.0743C11.3128 40.3651 11.2732 40.2057 10.3208 40.2057C9.68593 40.2455 8.85262 40.8033 7.93996 41.7994C6.70985 43.1938 6.35272 43.3532 4.64643 43.393C3.01951 43.393 2.58302 43.1938 1.39259 41.9986C0.241836 40.8432 0.00374969 40.2854 0.00374969 38.9308C-0.0359314 37.855 0.241836 36.859 0.718009 36.2215C1.11482 35.6638 1.9878 34.9864 2.6227 34.7076C3.29728 34.349 4.36867 34.2693 5.24165 34.3888C6.31304 34.5482 7.10666 35.0661 7.93996 36.0223C8.81294 37.0582 9.44784 37.4168 10.3208 37.4168C11.3922 37.4168 11.5509 37.2574 11.7097 35.9426C11.8287 35.106 12.1858 32.9944 12.543 31.2413C12.9001 29.4883 13.6937 26.6994 14.3683 25.0659C15.0032 23.4324 16.1936 21.0021 16.9872 19.6873C17.7809 18.3725 19.3284 16.1414 22.3045 12.1174L18.8522 8.73085H9.13039L7.82092 10.1253C6.70985 11.2807 6.27336 11.4799 4.64643 11.5198C3.01951 11.5198 2.58302 11.3205 1.39259 10.1253C0.241836 8.9699 0.00374969 8.41211 0.00374969 7.0575C-0.0359314 5.94193 0.241836 4.9459 0.797371 4.26859C1.23386 3.63112 2.18621 2.95382 2.90047 2.71477C3.61473 2.47572 4.76548 2.39603 5.40037 2.51556C6.03527 2.63508 7.14634 3.35223 9.13039 5.54352H14.0905C16.9476 5.54352 19.4475 5.74273 19.9236 5.98178C20.4395 6.22083 21.6696 7.25671 22.7013 8.29259C24.5266 10.0855 24.5663 10.1253 25.479 9.40815C25.9948 9.04958 27.3837 8.0137 28.5741 7.13718C29.7645 6.26067 32.2644 4.82637 34.1295 3.91001C35.9945 2.99366 39.3674 1.75857 41.6689 1.16094C45.0417 0.244589 46.748 0.0453806 50.7955 0.00553903ZM2.86079 7.37623C2.94015 7.73481 3.29728 8.25275 3.65441 8.4918C4.17026 8.81053 4.56707 8.81053 5.04324 8.4918C5.47973 8.25275 5.7575 7.57544 5.7575 6.89813C5.7575 5.94193 5.5591 5.70289 4.72579 5.6232C4.13058 5.54352 3.49568 5.78257 3.2576 6.1013C2.97983 6.45988 2.8211 7.01766 2.86079 7.37623ZM47.2242 15.8226C47.2639 18.6514 47.1052 19.4084 46.5496 19.8865C46.1528 20.2451 44.764 20.9622 43.4545 21.4802C42.145 21.9981 40.7165 22.3965 40.28 22.3567C39.8435 22.3168 38.415 21.2013 37.1055 19.8865L34.7247 17.496L29.5661 22.6356C33.4152 26.6994 34.5263 28.1337 34.5263 28.4524C34.5263 28.7712 34.0501 30.1656 33.4946 31.5601C32.939 32.9147 32.1057 34.349 31.6295 34.7474C30.955 35.3052 30.0423 35.4645 27.463 35.4247H24.2092L24.4076 42.397C30.0423 42.7157 31.828 42.9548 32.0264 43.154C32.1851 43.3133 32.82 44.668 33.4549 46.1421C34.0501 47.5764 34.5263 49.0904 34.5263 49.4888C34.5263 49.8474 33.4549 51.2817 32.1454 52.6761L29.8042 55.1463L34.7247 60.1265C38.0976 56.7001 39.4467 55.6244 39.8832 55.5049C40.3197 55.3455 41.9069 55.7439 43.4545 56.3415C44.9624 56.9392 46.4703 57.6962 46.748 58.0547C47.0655 58.493 47.2242 59.9671 47.2242 62.0389V65.3059H54.3668C54.3668 60.6843 54.5255 58.9711 54.7636 58.5328C54.962 58.0946 56.3508 57.1782 57.819 56.5407C59.3269 55.8634 60.8745 55.3455 61.311 55.3455C61.7475 55.3455 63.2157 56.4611 64.5648 57.8555L67.0647 60.3257L72.1836 55.1463C68.2155 50.9629 67.0647 49.6482 67.0647 49.4888C67.0647 49.2896 67.5409 48.0146 68.0964 46.5803C68.652 45.1461 69.4456 43.6719 69.8027 43.2735C70.3186 42.7157 71.0725 42.5564 73.8899 42.5962H77.3818V35.4247C72.1042 35.4247 70.5567 35.2255 70.1202 34.9466C69.7234 34.6677 68.8901 33.1139 68.2552 31.5601C67.5806 29.9266 67.1838 28.3329 67.3028 27.9743C67.4615 27.5759 68.5726 26.2213 69.8027 24.9464L72.0249 22.6754L67.0647 17.6952C63.8506 20.8825 62.5014 21.9981 61.9855 22.2371C61.2713 22.5957 60.5967 22.4762 58.2159 21.4802C56.6683 20.8028 55.1207 19.9662 54.843 19.5678C54.5255 19.1295 54.3668 17.6554 54.3668 15.6234V12.3166H47.2242V15.8226ZM19.8443 20.7232C18.9713 22.1176 17.7015 24.6276 17.0666 26.301C16.4317 27.9345 15.6381 30.6437 15.3206 32.3569C14.9635 34.0701 14.6857 35.9028 14.6857 36.4606C14.6857 37.4168 14.7254 37.4566 18.0586 37.4566H21.4315C21.4315 34.3888 21.6696 33.6318 22.2251 33.0741C22.8997 32.3967 23.5346 32.2374 26.471 32.2374H29.9629L31.4311 28.4923C27.225 24.3089 26.5901 23.3925 26.5901 22.5957C26.5901 21.9184 27.0265 21.0021 27.7408 20.2052L28.9312 18.9303C25.7171 15.6633 24.6854 14.7469 24.5266 14.7469C24.3679 14.7469 23.614 15.5039 22.86 16.4203C22.1061 17.3366 20.7569 19.2889 19.8443 20.7232ZM2.97983 39.4487C3.05919 39.8471 3.53536 40.3252 3.97186 40.4447C4.40835 40.5244 5.04324 40.4049 5.36069 40.126C5.71782 39.8471 5.95591 39.2097 5.87655 38.6519C5.79718 37.8949 5.47973 37.616 4.72579 37.4965C4.13058 37.4566 3.49568 37.6558 3.21792 38.0144C2.97983 38.373 2.86079 38.9706 2.97983 39.4487ZM14.8048 43.5126C14.9238 45.3054 15.4 48.1342 15.8762 49.8075C16.3523 51.441 17.4237 54.1901 18.2967 55.983C19.13 57.6962 20.5982 60.1663 21.5109 61.4413C22.4632 62.6764 23.3759 63.7122 23.614 63.7122C23.8124 63.7521 25.1219 62.6365 26.471 61.2421L28.9709 58.7719C26.9472 56.74 26.5504 55.983 26.5901 55.1861C26.5901 54.2299 27.1456 53.4331 28.9709 51.6004L31.3518 49.2099L29.7645 45.4249C23.4553 45.4249 22.7013 45.3054 22.1458 44.7078C21.7886 44.3492 21.4315 43.1938 21.3522 42.2376L21.2331 40.4447L14.5667 40.2057L14.8048 43.5126ZM13.7731 84.6689C14.0508 85.2267 14.6064 85.6649 14.9635 85.6649C15.3603 85.6649 15.9159 85.4657 16.1936 85.1868C16.4714 84.8681 16.6301 84.1908 16.5904 83.6729C16.5111 82.9159 16.1936 82.637 15.4397 82.5573C14.8841 82.4776 14.1699 82.7167 13.8524 83.0752C13.3763 83.5932 13.3763 83.8721 13.7731 84.6689ZM89.2068 76.4615C89.5639 76.4615 90.1591 76.7404 90.4765 77.099C90.913 77.617 90.9924 78.2943 90.794 80.0074C90.5956 81.3621 90.0401 82.9557 89.4052 84.0314C88.7703 84.9876 87.5798 86.3024 86.7068 86.9399C85.7148 87.6172 84.2069 88.2148 82.7387 88.4539C81.4293 88.6531 77.977 88.8124 69.8424 88.8523V94.2309C69.8424 99.3705 69.8027 99.6493 67.8584 102H26.1932L25.2012 100.805C24.2092 99.6095 24.2092 99.4501 24.2092 93.1153C24.2092 88.5734 24.3282 86.5016 24.6854 86.143C24.9235 85.8642 25.3599 85.6649 25.5583 85.6649C25.7964 85.6649 26.2726 85.8243 26.5901 86.0235C27.0662 86.3423 27.225 87.6969 27.5821 99.0119H66.4695L66.6679 93.5934C66.8266 89.3702 67.025 87.9758 67.5409 87.1391C67.9377 86.5415 68.652 85.9438 69.1281 85.8642C69.644 85.7446 73.0962 85.6251 76.8659 85.5454C83.0562 85.4657 83.7704 85.3861 84.8022 84.6291C85.3974 84.151 86.31 83.1549 86.8259 82.4378C87.3814 81.5613 87.6989 80.5254 87.6592 79.5293C87.6592 78.6927 87.8179 77.6966 88.056 77.2584C88.2941 76.8201 88.8099 76.4615 89.2068 76.4615ZM50.8749 22.7152C53.097 22.7152 54.6049 22.9543 56.2318 23.5519C57.5016 24.03 59.2476 24.9065 60.1205 25.5042C60.9935 26.1018 62.303 27.2572 63.0569 28.1337C63.8109 28.9704 64.9616 30.8429 65.6362 32.2772C66.787 34.6677 66.8663 35.1857 66.8266 39.0503C66.8266 42.7556 66.7076 43.4727 65.7156 45.6242C65.0807 46.9389 63.6522 48.9708 62.5014 50.2059C61.3507 51.4012 59.446 52.8753 58.2555 53.4331C57.1048 54.0307 54.8826 54.7479 53.3748 55.0268C51.1923 55.3853 50.0812 55.3853 48.2162 55.0268C46.9068 54.7877 44.883 54.1104 43.7323 53.5526C42.5815 53.0347 40.7959 51.7996 39.7642 50.8434C38.7325 49.8872 37.3436 48.0545 36.6294 46.7397C35.9548 45.4648 35.2802 43.7516 35.1612 42.9149C34.9628 41.6798 35.0421 41.3611 35.7167 41.0424C36.1532 40.8033 36.669 40.7236 36.9071 40.8432C37.1055 40.9228 37.8992 42.3173 38.6134 43.911C39.3277 45.5445 40.5975 47.4967 41.4705 48.3334C42.3434 49.1701 43.9307 50.3653 45.0417 50.9231C46.7877 51.8394 47.502 51.959 50.7955 51.9988C53.8906 51.9988 54.8826 51.8394 56.3508 51.1223C57.3429 50.6044 58.8904 49.5286 59.8428 48.7318C60.9142 47.7756 62.0649 46.1819 62.8189 44.6281C63.8506 42.4767 64.0886 41.5205 64.049 39.2495C64.049 37.4965 63.7712 35.6239 63.295 34.2693C62.7792 32.835 61.8268 31.321 60.5174 29.9266C59.3666 28.7313 57.581 27.3767 56.3508 26.7791C54.5652 25.9424 53.5732 25.7432 50.9939 25.7034C48.2162 25.7034 47.4623 25.8627 45.2402 26.9384C43.6132 27.7353 42.026 28.8907 40.9546 30.1258C40.0023 31.2015 38.8515 33.1139 38.3753 34.3888C37.8992 35.7036 37.2643 36.8988 36.9865 37.0981C36.7087 37.2973 36.2326 37.3371 35.9151 37.2574C35.5977 37.1379 35.2008 36.7395 35.0421 36.3411C34.9231 35.9426 35.0818 34.7474 35.4389 33.6717C35.7961 32.5561 36.7881 30.6836 37.6214 29.4883C38.4547 28.2532 40.2007 26.5799 41.4705 25.7034C42.7402 24.8268 44.6846 23.791 45.7957 23.3925C46.9861 22.9941 49.0495 22.7152 50.8749 22.7152Z" fill="#FF9D0A"/>
</svg>
