<svg width="100" height="86" viewBox="0 0 100 86" fill="none" xmlns="http://www.w3.org/2000/svg">
<path fill-rule="evenodd" clip-rule="evenodd" d="M79.258 0.00296306C79.7667 -0.0361443 80.3536 0.315822 80.6667 0.824217C80.9797 1.33261 85.2448 11.7352 90.0969 24.0149C94.9881 36.2555 99.2533 46.9318 99.6054 47.6748C100.036 48.6525 100.114 49.3173 99.8402 49.9821C99.5663 50.7643 98.3142 51.4291 86.5753 56.122L86.3796 70.6699C86.2231 83.0669 86.1057 85.2961 85.597 85.6089C85.2448 85.8436 68.7712 86 43.0239 86C6.24195 86 0.998576 85.9218 0.48989 85.4134C-0.0187967 84.905 -0.0970561 81.4635 0.0985924 31.8363L1.27248 31.0933C1.89856 30.6631 19.5069 23.5065 40.4022 15.1766C61.2583 6.84675 78.7493 0.0420704 79.2189 0.00296306H79.258ZM13.0114 30.5458C12.8549 30.7413 15.2027 30.8587 18.1765 30.8587C21.1895 30.8587 23.8112 30.7022 24.0068 30.4676C24.2416 30.272 33.6719 26.4004 45.0195 21.864C56.4062 17.3666 65.993 13.6514 66.3452 13.6514C66.7365 13.6514 67.6756 14.2771 68.4191 15.0593C69.1625 15.8414 70.6495 16.8973 71.7451 17.4448C73.0364 18.1097 74.6798 18.5398 76.558 18.6963C78.4363 18.8527 79.5319 19.1265 79.7667 19.5175C80.0015 19.8304 81.0971 22.4506 82.2319 25.3445C83.7579 29.2944 84.5405 30.7413 85.3231 31.2888L86.4187 32.0319C86.4187 49.3564 86.5361 51.5855 86.8883 51.5855C87.1622 51.5855 89.1969 50.8816 91.3882 50.0212C93.6186 49.1609 95.4186 48.3396 95.4186 48.1832C95.4186 47.9877 91.5839 38.2108 86.8492 26.3613C81.6058 13.143 78.0841 4.81317 77.7711 4.77406C77.458 4.77406 62.8235 10.4837 45.2543 17.4839C27.685 24.5233 13.1679 30.3894 13.0114 30.5849V30.5458ZM33.7893 30.624C51.6716 30.7804 62.0801 30.7804 68.4582 30.7413L80.0797 30.624L76.8711 22.7243C73.819 22.3724 71.9407 21.864 70.7669 21.3556C69.593 20.8081 67.9886 19.8304 67.2452 19.1656C66.5017 18.5007 65.68 17.9532 65.4843 17.9532C65.2496 17.9923 58.0497 20.8472 49.4412 24.2886L33.7893 30.624ZM3.85504 82.0502H82.5058V34.7303H3.85504V82.0502ZM43.1804 38.7192C56.0932 38.7192 67.0887 38.8757 67.6365 38.993C68.3017 39.1885 68.9669 39.9707 69.7886 41.535C70.4147 42.7864 71.5886 44.4289 72.332 45.1719C73.0755 45.9541 74.5233 46.9709 75.5015 47.4011C76.4798 47.8703 77.5754 48.4961 77.9667 48.8089C78.5537 49.3564 78.6319 50.3732 78.5928 58.3902C78.5928 63.3568 78.4363 67.6196 78.2798 67.8933C78.1232 68.1671 77.1059 68.7928 76.0494 69.3012C74.9537 69.7705 73.3885 70.7872 72.5668 71.5303C71.706 72.2733 70.4929 73.994 68.5756 77.9439L43.963 78.0612C30.385 78.1394 18.9591 78.1003 18.5287 77.983C18.0591 77.8657 17.3548 76.9271 16.6896 75.5192C16.1026 74.3069 14.9288 72.6253 14.1462 71.8431C13.3244 71.0219 11.681 69.9269 10.5071 69.3403C9.3332 68.7537 8.23757 68.0497 8.08105 67.8151C7.92453 67.5804 7.76802 63.3568 7.76802 58.3902C7.72889 50.3732 7.80715 49.3564 8.39409 48.8089C8.78539 48.4961 9.92015 47.8312 10.9767 47.3619C11.994 46.8927 13.5201 45.7585 14.3027 44.8982C15.1244 44.0378 16.2592 42.4344 16.807 41.3394C17.4722 40.0489 18.1765 39.1885 18.7635 39.0321C19.2722 38.8757 30.2676 38.7192 43.1804 38.7192ZM19.9765 43.7641C19.6243 44.4289 18.7635 45.7585 18.1374 46.6971C17.4331 47.6748 15.8287 49.0827 14.3027 50.0604L11.681 51.742V65.4295C14.4983 66.9547 16.1418 68.2844 17.1591 69.3403C18.1765 70.4353 19.3504 71.9605 19.7417 72.7817L20.4852 74.2678L65.8756 74.2287C67.48 71.3739 68.8495 69.6922 69.9451 68.6754C71.0408 67.6587 72.5668 66.5245 73.3103 66.1335L74.6798 65.4295L74.7189 51.3509C72.1364 50.1386 70.5712 49.0045 69.593 48.0268C68.6147 47.0491 67.4017 45.4848 66.8539 44.5071L65.8756 42.7473L20.6417 42.5517L19.9765 43.7641ZM43.5717 46.9318C45.9586 47.0491 47.1716 47.3228 48.6194 48.0659C49.6759 48.5743 51.1629 49.7084 51.9063 50.5687C52.6889 51.4291 53.6672 52.9543 54.0976 53.8929C54.6454 55.1443 54.8802 56.5131 54.8802 58.3902C54.8802 60.3456 54.6454 61.7143 54.0193 63.0831C53.5498 64.1781 52.415 65.7815 51.515 66.681C50.5759 67.5804 48.9716 68.7537 47.876 69.223C46.4282 69.8878 45.2151 70.1224 43.1804 70.1224C41.1065 70.1224 39.9326 69.8878 38.3283 69.1447C37.1544 68.5972 35.5501 67.424 34.6501 66.4072C33.7501 65.4686 32.7328 63.8652 32.3023 62.8876C31.8719 61.949 31.5198 60.1892 31.5198 58.9768C31.4806 57.8036 31.7154 56.0438 31.9502 55.0661C32.2241 54.1275 33.1241 52.4459 33.9458 51.3509C34.9632 49.9821 36.1371 49.0045 37.8979 48.105C40.2457 46.8927 40.637 46.8144 43.5717 46.9318ZM36.7631 54.3231C35.7458 55.7309 35.511 56.4348 35.4719 58.1947C35.4719 59.6808 35.7066 60.8931 36.2936 62.0272C36.7631 62.9267 37.7022 64.0999 38.4066 64.6083C39.1109 65.1167 40.3631 65.7424 41.2239 66.0161C42.1239 66.2899 43.4543 66.4072 44.3543 66.2508C45.2151 66.1335 46.5064 65.6642 47.2108 65.234C47.9151 64.8038 48.8933 63.9044 49.402 63.2004C49.9498 62.4965 50.5759 61.1277 50.8107 60.15C51.0455 59.2115 51.1237 57.8818 51.0064 57.217C50.8498 56.5913 50.3803 55.379 49.989 54.5968C49.5585 53.6973 48.502 52.6414 47.4064 51.9375C45.8804 50.9989 45.0978 50.7643 43.376 50.7643C41.8109 50.7643 40.7544 51.038 39.6196 51.7029C38.7196 52.2113 37.4283 53.3845 36.7631 54.3231ZM22.0504 55.6527C22.7156 55.77 23.459 56.0829 23.6938 56.3566C23.9677 56.6304 24.3199 57.3734 24.4373 57.9991C24.6721 58.9768 24.5155 59.407 23.6938 60.2674C23.0677 60.9322 22.2851 61.3233 21.5808 61.3233C20.9939 61.3233 20.0939 60.9322 19.5852 60.4629C19.0765 59.9154 18.6852 59.0942 18.6852 58.3511C18.6461 57.4125 18.9591 56.865 19.7808 56.2393C20.5634 55.6527 21.1895 55.4572 22.0504 55.6527ZM20.8765 58.9768C20.9939 59.2115 21.346 59.3679 21.6591 59.3679C21.9721 59.3679 22.3243 59.2115 22.4417 58.9768C22.559 58.7813 22.4417 58.312 22.1677 57.9991C21.8938 57.6472 21.5417 57.4125 21.346 57.4125C21.1895 57.4125 20.9939 57.6863 20.8765 57.9991C20.7591 58.3511 20.7591 58.7813 20.8765 58.9768ZM64.8974 55.4963C65.2104 55.4572 65.993 55.8091 66.58 56.2393C67.4017 56.8259 67.6365 57.3734 67.6365 58.3902C67.6365 59.2506 67.3626 60.0718 66.8539 60.5411C66.4235 60.9713 65.6409 61.3233 65.093 61.3233C64.5452 61.3233 63.7626 61.1668 63.3322 60.9322C62.9018 60.7367 62.3931 60.0718 62.1583 59.4852C61.8844 58.7422 61.8844 58.1165 62.1583 57.4125C62.354 56.9041 62.9409 56.2393 63.4105 56.0047C63.9192 55.7309 64.5844 55.4963 64.8974 55.4963ZM64.1148 58.9768C64.3104 59.3679 64.6626 59.4852 65.0539 59.2897C65.4061 59.1333 65.6409 58.7031 65.6017 58.3511C65.5235 57.9991 65.2887 57.6081 65.0539 57.5299C64.8191 57.4516 64.4278 57.6081 64.1931 57.9209C63.9583 58.1947 63.9192 58.6249 64.1148 58.9768Z" fill="#FF9D0A"/>
</svg>
