<svg width="120" height="75" viewBox="0 0 120 75" fill="none" xmlns="http://www.w3.org/2000/svg">
<path fill-rule="evenodd" clip-rule="evenodd" d="M3.79539 0H75.0176L78.5318 3.18551V58.5571L75.4861 61.6021L51.1207 61.8363L51.4018 62.867C51.5424 63.4759 51.7298 64.2723 51.8704 64.6471C51.9641 65.1156 52.9012 65.4435 54.4943 65.6777C56.3217 65.9119 57.3057 66.3335 58.2897 67.3173C59.2737 68.2542 59.6954 69.2848 59.9297 71.0181C60.164 72.8451 60.0703 73.6415 59.5549 74.2036C58.8989 74.9063 56.9777 75 39.4065 75C21.8352 75 19.9141 74.9063 19.2581 74.2036C18.7427 73.6415 18.649 72.8451 18.8832 71.0181C19.1175 69.2848 19.5392 68.2542 20.5232 67.3173C21.4604 66.3335 22.4912 65.9119 24.2718 65.6777C26.6146 65.3498 26.7552 65.2561 27.6923 61.8363L3.37368 61.6021L0 58.3229L0.28114 3.18551L2.01484 1.59275L3.79539 0ZM3.74854 27.7327L3.84225 50.5934H75.0644C75.0644 9.93129 74.9239 4.77826 74.4553 4.35665C73.9867 3.88819 66.6302 3.74766 39.4065 3.74766C13.3073 3.74766 4.77938 3.88819 4.31082 4.30981C3.74854 4.77826 3.65482 8.66646 3.74854 27.7327ZM3.79539 55.6527C3.79539 56.3554 4.07653 57.1986 4.40453 57.5265C4.8731 57.995 8.85591 58.1355 21.7415 58.0887C38.3756 58.0887 38.5162 58.0887 37.9071 57.1518C37.4385 56.4022 37.4385 56.0275 37.9071 55.278C38.5162 54.341 38.3756 54.341 21.1792 54.341H3.84225L3.79539 55.6527ZM40.9059 57.1986C40.3436 58.1355 40.4373 58.1355 57.1183 58.1355C69.9102 58.1355 74.0336 57.995 74.4553 57.5265C74.7833 57.1986 75.0176 56.3554 75.0176 55.6527V54.3879C40.4373 54.3879 40.3436 54.3879 40.9059 55.3248C41.3745 56.0743 41.3745 56.4491 40.9059 57.1986ZM30.7848 64.5534L30.5037 65.6309H48.2155L47.3721 61.8832C32.2374 61.8832 31.4408 61.93 31.2534 62.6796C31.1597 63.148 30.9254 63.9913 30.7848 64.5534ZM22.4444 70.8776C22.4912 71.065 30.1289 71.2523 39.4065 71.2523C48.6841 71.2523 56.2749 71.065 56.2749 70.8776C56.2749 70.6902 55.9937 70.2686 55.6658 69.9407C55.244 69.4722 51.4487 69.3317 39.3596 69.3785C27.8329 69.3785 23.4752 69.5191 23.0066 69.9407C22.6318 70.2217 22.3975 70.6433 22.4444 70.8776ZM85.982 0.0468457L116.486 0L120 3.7945L119.766 71.674L116.486 75H86.2632L82.7489 71.7676V3.37289L84.342 1.68645L85.982 0.0468457ZM86.1695 6.23048L86.2632 7.54216H116.251C116.298 5.57464 116.017 4.73142 115.689 4.4035C115.221 3.93504 111.8 3.7945 101.257 3.7945C91.1831 3.7945 87.2472 3.98189 86.7317 4.35665C86.4037 4.68457 86.1226 5.52779 86.1695 6.23048ZM101.257 13.1636C115.97 13.1636 116.251 13.1636 116.251 12.2267C116.251 11.3367 115.97 11.2898 101.257 11.2898C86.5912 11.2898 86.2632 11.3367 86.2632 12.2267C86.2632 13.1636 86.5912 13.1636 101.257 13.1636ZM86.2632 43.5197C86.2632 64.366 86.4037 70.2217 86.8723 70.6902C87.294 71.1586 90.7614 71.2992 101.304 71.2523C111.753 71.2523 115.267 71.1118 115.736 70.6902C116.158 70.2217 116.298 63.757 116.298 43.5197L116.251 16.9113H86.2632V43.5197ZM102.007 28.4354C103.272 28.5759 104.303 29.0912 105.287 30.075C106.458 31.2461 106.693 31.8551 106.693 33.8226C106.693 35.7901 106.458 36.3523 105.146 37.664C103.834 38.9756 103.272 39.2099 101.304 39.2099C99.2893 39.2099 98.7271 38.9756 97.4151 37.664C96.1031 36.3523 95.9157 35.7901 95.9157 33.8226C95.9157 32.0893 96.1499 31.2461 96.9934 30.2623C97.6025 29.5596 98.5396 28.8101 99.1019 28.5759C99.6642 28.3885 100.976 28.2948 102.007 28.4354ZM99.5236 34.1037C99.5705 34.5253 99.9922 35.1343 100.461 35.4154C101.07 35.7901 101.492 35.7901 102.101 35.4154C102.569 35.1343 102.991 34.5253 103.038 34.1037C103.085 33.6821 102.897 33.0262 102.569 32.6046C102.241 32.2299 101.632 31.9019 101.21 31.9019C100.789 31.9488 100.226 32.2767 99.9453 32.6515C99.6642 33.0262 99.4768 33.6821 99.5236 34.1037ZM101.445 50.7808C108.848 50.8745 109.926 51.015 110.348 51.7177C110.769 52.3267 110.769 52.7483 110.348 53.3573C109.926 54.1068 108.848 54.2005 101.445 54.2942C95.3534 54.3879 92.9168 54.2473 92.4951 53.8257C92.1203 53.4978 91.8391 52.9357 91.7923 52.514C91.7454 52.1393 92.0266 51.5303 92.4014 51.2492C92.87 50.8276 95.3534 50.6871 101.445 50.7808ZM101.445 56.4022C108.848 56.4959 109.926 56.6365 110.348 57.3392C110.769 57.9482 110.769 58.3698 110.348 58.9788C109.926 59.7283 108.848 59.822 101.445 59.9157C95.3534 60.0094 92.9168 59.8688 92.4951 59.4472C92.1203 59.1193 91.8391 58.5571 91.7923 58.1355C91.7454 57.7608 92.0266 57.1518 92.4014 56.8707C92.87 56.4491 95.3534 56.3086 101.445 56.4022ZM101.445 62.0237C108.848 62.1174 109.926 62.258 110.348 62.9606C110.769 63.5696 110.769 63.9912 110.348 64.6002C109.926 65.3498 108.848 65.4435 101.445 65.5372C95.3534 65.6308 92.9168 65.4903 92.4951 65.0687C92.1203 64.7408 91.8391 64.1786 91.7923 63.757C91.7454 63.3823 92.0266 62.7733 92.4014 62.4922C92.87 62.0706 95.3534 61.93 101.445 62.0237Z" fill="#FF9D0A"/>
</svg>
