<svg width="100" height="99" viewBox="0 0 100 99" fill="none" xmlns="http://www.w3.org/2000/svg">
<path fill-rule="evenodd" clip-rule="evenodd" d="M25.0196 0.000816261C26.857 -0.0384847 34.4801 1.33705 52.9712 5.07064C66.9665 7.90031 78.6162 10.4156 78.8899 10.6907C79.2808 11.0837 79.3981 16.4286 79.359 37.4154C79.359 58.127 79.4763 63.6291 79.8672 63.6291C80.1018 63.6291 81.6655 63.2754 83.2683 62.8431C84.8711 62.4108 87.2167 62.0571 88.4677 62.0571C89.7187 62.0571 91.5951 62.3715 92.7679 62.8038C94.1753 63.354 95.3872 64.2186 96.7554 65.6728C97.9673 66.9697 98.9055 68.4631 99.2574 69.5243C99.531 70.5068 99.8438 72.7076 99.9611 74.4369C100.078 76.3233 99.922 78.4849 99.6092 79.8211C99.2183 81.4718 99.1792 83.3189 99.4138 87.0918C99.6092 90.3538 99.5701 92.6332 99.2965 93.5765C99.101 94.4018 98.3192 95.6987 97.6546 96.524C96.9509 97.3101 95.7781 98.1747 95.1135 98.4891C94.4098 98.7642 93.0416 99 92.0643 99C91.0869 99 89.6405 98.6463 88.8586 98.2533C88.0377 97.8603 86.9821 97.0742 86.513 96.5633C86.0439 96.0917 84.7929 93.773 83.6983 91.4149C81.8219 87.4455 81.6264 87.2097 80.5318 87.2097C79.4372 87.2097 79.359 87.3276 79.359 88.5852C79.359 89.4499 80.1409 91.5328 81.5091 94.2839C82.6819 96.6419 83.6592 98.6856 83.6592 98.8035C83.6592 98.9214 64.8164 99 0 99L4.30024 90.3538V46.8083C4.26115 5.54225 4.30024 3.2628 4.96482 2.43748C5.62941 1.61216 6.29399 1.49425 14.0735 0.786836C18.6865 0.393826 23.6122 0.0401172 25.0196 0.000816261ZM17.9828 3.89161V32.9743C19.3511 32.9743 20.9148 32.8564 22.4003 32.6599L25.0196 32.3848V3.4986C22.1267 3.61651 20.563 3.69511 19.6247 3.77371L17.9828 3.89161ZM28.1079 18.2758C28.147 26.136 28.2643 32.5813 28.3816 32.5813C28.4598 32.5813 39.1322 33.9962 52.0329 35.7254C64.9336 37.4547 75.567 38.8695 75.6842 38.8695C75.7624 38.8695 75.8406 33.0529 75.8015 25.9788L75.7233 13.1273C39.1322 5.73876 28.3816 3.69511 28.2643 3.81301C28.147 3.93091 28.0688 10.4549 28.1079 18.2758ZM7.85771 4.67763V33.7604C10.1251 33.7604 11.6888 33.6032 12.8225 33.446L14.8945 33.1708V4.28462C12.588 4.40253 11.0243 4.48113 9.89055 4.55973L7.85771 4.67763ZM18.0219 36.5114V88.7817H25.0587V36.1184C21.5794 36.197 19.9766 36.2756 19.312 36.3542L18.0219 36.5114ZM28.1861 88.7817H48.71C49.2182 83.8298 49.14 82.1006 48.6318 79.3495C48.0845 76.2054 48.0454 75.1443 48.4364 72.4718C48.71 70.6247 49.2964 68.6989 49.8046 67.7557C50.3128 66.8911 51.4856 65.5156 52.4629 64.7295C53.4012 63.9042 54.9649 62.961 55.9422 62.6466C56.8805 62.3322 58.796 62.0571 60.1252 62.0571C61.4544 62.0571 64.0345 62.4108 65.7937 62.8431C67.5529 63.2754 70.563 63.747 72.4395 63.9435L75.8797 64.2186V42.4066C73.886 42.0922 63.3699 40.6773 51.2511 39.066C39.0931 37.4547 28.9289 36.1184 28.6552 36.1184C28.2643 36.1184 28.1861 41.6599 28.1861 62.4501V88.7817ZM7.85771 37.2975V88.7817H14.8945V36.9044C12.0016 37.0223 10.3988 37.1009 9.49962 37.1795L7.85771 37.2975ZM54.7694 67.2448C54.0267 67.795 53.0493 68.9347 52.6584 69.7601C52.0329 70.9784 51.8765 72.0002 51.9547 74.8299C51.9938 76.7556 52.072 81.629 52.1502 85.6377C52.2284 89.8036 52.4629 93.2621 52.6975 93.6944C52.893 94.1267 53.753 94.7948 54.5349 95.1485C55.6295 95.6987 56.2159 95.7773 57.2323 95.4629C57.8969 95.2664 58.7569 94.7948 59.1088 94.4018C59.4997 94.0088 60.5552 92.0044 61.5716 89.9608C62.549 87.9171 63.6827 85.6377 64.1518 84.9302L64.9336 83.6726H83.8938C87.4904 91.4149 88.7022 93.9302 88.9368 94.2446C89.1714 94.559 89.875 95.0306 90.5396 95.3057C91.3997 95.6594 92.1424 95.6987 93.198 95.4236C94.0971 95.2271 94.918 94.6769 95.3481 94.0088C95.8954 93.1049 96.0127 91.9258 96.0518 86.6202C96.0518 83.1617 96.2081 78.6421 96.3645 76.5984C96.5991 74.1225 96.56 72.3146 96.2472 71.1749C96.0127 70.271 95.3481 68.974 94.7617 68.3059C94.1362 67.5985 93.0416 66.7339 92.2988 66.3802C91.556 65.9872 90.3442 65.5549 89.6014 65.437C88.7804 65.2405 87.1385 65.437 85.1057 65.9479C83.3856 66.3802 80.3363 66.9304 78.4208 67.1662C75.9579 67.4413 73.7687 67.4806 71.1885 67.2055C69.1557 66.9697 65.9892 66.4588 64.1518 65.9872C62.3144 65.5549 60.3988 65.2011 59.8515 65.2011C59.3042 65.2405 58.2487 65.437 57.506 65.7121C56.7632 65.9872 55.5122 66.6553 54.7694 67.2448ZM66.1064 88.5852C66.1064 88.7031 68.2956 88.7817 70.9931 88.7817C75.6061 88.7817 75.8797 88.7424 75.8797 87.9957C75.8797 87.249 75.6061 87.2097 71.2276 87.2097C67.4356 87.2097 66.5365 87.3276 66.341 87.7992C66.2237 88.1136 66.1064 88.4673 66.1064 88.5852ZM6.52855 93.6944C6.17671 94.4411 5.90306 95.2271 5.90306 95.4629C5.90306 95.6987 9.69509 95.8559 16.4582 95.8559C23.2213 95.8559 27.0133 95.6987 27.0133 95.4629C27.0133 95.2271 26.7006 94.4411 26.3488 93.6944L25.6451 92.3188H7.19313L6.52855 93.6944ZM30.1799 93.9695L31.1181 95.6594C49.0618 95.8559 49.6482 95.8166 49.4528 95.1485C49.3355 94.7948 49.1009 93.9695 48.9446 93.38L48.6709 92.2795L29.2416 92.3188L30.1799 93.9695ZM63.6045 93.6551C63.3308 94.4018 63.0572 95.1878 63.0181 95.4236C62.979 95.6987 65.5591 95.8166 70.6021 95.8166C74.7851 95.8166 78.2253 95.738 78.2253 95.6201C78.2253 95.5415 77.8735 94.7162 77.4434 93.8516L76.6616 92.2795H64.1127L63.6045 93.6551ZM60.5161 68.3452C61.2198 68.3452 62.2753 68.5417 62.8617 68.7382C63.4481 68.974 64.4254 69.6422 65.0509 70.2317C65.6764 70.8212 66.4192 71.843 66.7319 72.5504C67.0056 73.2579 67.2401 74.4762 67.2401 75.2229C67.2401 75.9696 67.0056 77.1487 66.7319 77.8561C66.4583 78.5635 65.7155 79.5853 65.0509 80.1355C64.4254 80.6857 63.2135 81.3932 62.3535 81.6683C61.4153 81.9827 60.2425 82.0613 59.4215 81.9041C58.6787 81.7469 57.4669 81.236 56.7632 80.7643C56.0204 80.332 55.1213 79.3888 54.7303 78.76C54.3785 78.0919 53.9485 76.9521 53.8312 76.2054C53.6748 75.4587 53.753 74.2011 53.9485 73.4544C54.1439 72.7076 54.6522 71.5679 55.0431 70.9391C55.434 70.3103 56.5677 69.485 57.506 69.0919C58.4442 68.6989 59.8124 68.3452 60.5161 68.3452ZM57.545 73.7295C57.3105 74.2404 57.0759 74.9871 57.0759 75.4194C57.0759 75.8517 57.6232 76.7163 58.2487 77.3845C58.9915 78.0919 59.8515 78.5635 60.5161 78.5635C61.1416 78.5635 62.0408 78.1705 62.6662 77.581C63.4481 76.8735 63.7218 76.2054 63.7218 75.2229C63.7218 74.2797 63.409 73.533 62.7444 72.8648C62.0929 72.2098 61.3501 71.8823 60.5161 71.8823C59.8124 71.8823 58.9524 72.1181 58.6006 72.3932C58.2878 72.629 57.7796 73.2579 57.545 73.7295ZM87.9595 68.3452C88.7413 68.3059 90.1487 68.7382 91.0869 69.2492C92.2206 69.8387 93.1589 70.7426 93.7453 71.7251C94.2926 72.7469 94.6053 73.926 94.6053 75.2229C94.6053 76.5591 94.3316 77.6203 93.7843 78.5635C93.3152 79.3102 92.5725 80.2534 92.1033 80.6071C91.6733 81.0001 90.5787 81.4718 89.7187 81.7076C88.8195 81.9827 87.4904 82.022 86.5912 81.8648C85.7312 81.7076 84.4802 81.0395 83.7374 80.3713C82.9947 79.7032 82.1737 78.6421 81.861 78.0526C81.5482 77.4631 81.3137 76.1268 81.3527 75.105C81.3527 73.8867 81.6655 72.7076 82.2519 71.6858C82.8383 70.7033 83.8156 69.7601 84.8711 69.2099C85.8484 68.7382 87.2167 68.3452 87.9595 68.3452ZM84.7148 75.3408C84.7538 76.3626 85.0666 77.07 85.7703 77.6596C86.3567 78.1705 87.334 78.5635 87.9595 78.5635C88.6632 78.5635 89.6014 78.1705 90.2269 77.6203C91.0087 76.9128 91.2824 76.284 91.2824 75.2622C91.2824 74.3583 90.9696 73.5723 90.3051 72.8648C89.6014 72.1574 88.9368 71.843 87.9595 71.8823C86.9431 71.8823 86.2785 72.1574 85.6139 72.9041C84.9102 73.6116 84.6757 74.2797 84.7148 75.3408ZM70.8367 69.9173C70.9931 69.9173 71.6186 70.3496 72.1268 70.8998C72.7914 71.5679 73.5341 71.8823 74.4724 71.8823C75.3715 71.8823 75.9579 71.6465 76.1534 71.2142C76.3097 70.8605 76.7398 70.4282 77.1307 70.2317C77.5607 70.0352 78.1471 70.0352 78.6162 70.271C79.1635 70.5854 79.359 71.0963 79.359 72.3539C79.3981 73.2971 79.1635 74.2404 78.8899 74.5155C78.5771 74.8692 77.0916 75.0264 74.316 75.0264C71.5013 75.0264 70.0157 74.8692 69.703 74.5155C69.4294 74.2404 69.1557 73.4151 69.1166 72.7076C69.0775 71.843 69.3121 71.0963 69.7812 70.6247C70.1721 70.2317 70.6412 69.9173 70.8367 69.9173Z" fill="#FF9D0A"/>
</svg>
