<svg width="100" height="107" viewBox="0 0 100 107" fill="none" xmlns="http://www.w3.org/2000/svg">
<path fill-rule="evenodd" clip-rule="evenodd" d="M36.4583 0.0044798C38.0833 -0.0373317 39.5417 0.213537 40.625 0.757086C41.5417 1.1752 43.0417 2.34592 43.9583 3.39121C44.875 4.43649 45.875 5.98352 46.125 6.90337C46.4167 7.78141 46.6667 9.5793 46.6667 10.8336C46.6667 12.088 46.4167 13.8859 46.125 14.7639C45.875 15.6838 44.875 17.2726 43.9167 18.3179C42.8056 19.6001 41.5556 20.4921 40.1667 20.9938C39.0417 21.3701 37.4583 21.7046 36.6667 21.7046C35.875 21.7046 34.4583 21.4538 33.5417 21.2029C32.5417 20.8684 31.0417 19.8649 29.7917 18.5688C28.5 17.3144 27.5 15.8092 27.1667 14.8057C26.9167 13.8859 26.6667 12.088 26.6667 10.8336C26.6667 9.5793 26.9167 7.78141 27.2083 6.90337C27.4583 5.98352 28.4583 4.43649 29.375 3.43302C30.2917 2.47136 31.7083 1.30063 32.5 0.840709C33.4583 0.29716 34.7917 0.0044798 36.4583 0.0044798ZM31.375 5.77446C30.875 6.48526 30.2917 7.78141 30.1667 8.61764C30 9.49568 30 11.1263 30.125 12.297C30.25 13.426 30.7083 14.8475 31.1667 15.4329C31.625 16.0183 32.5 16.8545 33.0833 17.3144C33.9167 17.9416 34.875 18.1507 36.6667 18.1507C38.5 18.1507 39.375 17.9416 40.2917 17.2726C40.9167 16.7709 41.8333 15.851 42.2917 15.2657C42.9583 14.3458 43.125 13.4678 43.125 10.8336C43.125 8.15771 42.9583 7.32148 42.25 6.35982C41.75 5.73265 40.9167 4.85461 40.375 4.43649C39.8333 4.01838 38.4583 3.55845 37.2917 3.47483C36.0417 3.3494 34.625 3.51664 33.7917 3.89295C33 4.18563 31.9167 5.02185 31.375 5.77446ZM63.125 0.0044798C64.75 -0.0373317 66.2083 0.213537 67.2917 0.757086C68.2083 1.1752 69.7083 2.34592 70.625 3.39121C71.5417 4.43649 72.5417 5.98352 72.7917 6.90337C73.0833 7.78141 73.3333 9.5793 73.3333 10.8336C73.3333 12.088 73.0833 13.8859 72.7917 14.7639C72.5417 15.6838 71.5417 17.2726 70.5833 18.3179C69.4722 19.6001 68.2222 20.4921 66.8333 20.9938C65.7083 21.3701 64.125 21.7046 63.3333 21.7046C62.5417 21.7046 61.125 21.4538 60.2083 21.2029C59.2083 20.8684 57.7083 19.8649 56.4583 18.5688C55.1667 17.3144 54.1667 15.8092 53.8333 14.8057C53.5833 13.8859 53.3333 12.088 53.3333 10.8336C53.3333 9.5793 53.5833 7.78141 53.875 6.90337C54.125 5.98352 55.125 4.43649 56.0417 3.43302C56.9583 2.47136 58.375 1.30063 59.1667 0.840709C60.125 0.29716 61.4583 0.0044798 63.125 0.0044798ZM58.0417 5.77446C57.5417 6.48526 56.9583 7.78141 56.8333 8.61764C56.6667 9.49568 56.6667 11.1263 56.7917 12.297C56.9167 13.426 57.375 14.8475 57.8333 15.4329C58.2917 16.0183 59.1667 16.8545 59.75 17.3144C60.5833 17.9416 61.5417 18.1507 63.3333 18.1507C65.1667 18.1507 66.0417 17.9416 66.9583 17.2726C67.5833 16.7709 68.5 15.851 68.9583 15.2657C69.625 14.3458 69.7917 13.4678 69.7917 10.8336C69.7917 8.15771 69.625 7.32148 68.9167 6.35982C68.4167 5.73265 67.5833 4.85461 67.0417 4.43649C66.5 4.01838 65.0833 3.55845 63.9583 3.47483C62.7083 3.3494 61.2917 3.51664 60.4583 3.89295C59.6667 4.18563 58.5833 5.02185 58.0417 5.77446ZM18.125 38.471C24.625 38.4292 30 38.5965 30.8333 38.8473C31.625 39.0982 32.6667 39.5581 33.125 39.8926C33.9583 40.5198 33.9167 40.5198 32.7083 41.7323C31.5417 42.8612 31.375 42.903 30.4167 42.3595C29.5833 41.8996 27.125 41.7741 6.25 41.9832L3.54167 44.7009L3.41667 57.4534C3.33333 69.7042 3.375 70.2477 4.16667 71.0421C4.625 71.5021 5.375 71.8784 5.83333 71.8784C6.29167 71.8784 7.04167 71.5021 7.5 71.0421C8.29167 70.2477 8.33333 69.6624 8.33333 53.4813H11.6667V101.983H8.33333V74.8052L6.33333 75.0561C4.79167 75.2233 4.08333 75.0979 3 74.4289C2.29167 73.9271 1.29167 72.9237 0.833333 72.1711C0.0416667 70.9167 0 70.0805 0 58.2897C0 51.3071 0.208333 45.0354 0.416667 44.1574C0.666667 43.2793 1.54167 41.8996 2.5 40.9379C3.41667 40.018 4.79167 39.0982 5.5 38.8891C6.25 38.6801 11.9167 38.471 18.125 38.471ZM94.5 38.6383L96.2917 39.8926C97.2917 40.6034 98.5 41.9832 99.0417 43.0285C100 44.8682 100 45.0772 100 57.6625C100 68.9516 99.9167 70.5822 99.25 71.8366C98.875 72.631 98 73.6763 97.375 74.1362C96.5 74.7634 95.5417 75.0142 91.6667 75.0142V101.983H88.3333V53.4813H91.6667V61.8436C91.6667 69.6624 91.7083 70.2477 92.5 71.0421C92.9583 71.5021 93.7083 71.8784 94.1667 71.8784C94.625 71.8784 95.375 71.5021 95.8333 71.0421C96.625 70.2477 96.6667 69.7042 96.4583 44.7009L93.75 41.9832L82.1667 41.8577C72.875 41.7741 70.4167 41.8996 69.5833 42.3595C68.625 42.903 68.4583 42.8612 67.2917 41.7323C66.0833 40.5198 66.0417 40.5198 66.875 39.8926C67.3333 39.5581 68.25 39.0982 68.9583 38.8891C69.6667 38.6383 75.5833 38.5128 94.5 38.6383ZM62.7917 43.6556L64.4167 44.7427C65.2917 45.3281 66.5 46.5406 68.125 49.0911L68.25 62.2617C68.3333 74.2198 68.2917 75.5578 67.625 76.8539C67.2083 77.6484 66.3333 78.6936 65.7083 79.1536C64.8333 79.7807 63.875 80.0316 60 80.0316V107H56.6667V58.4987H60V66.861C60 74.6797 60.0417 75.2651 60.8333 76.0595C61.2917 76.5194 62.0417 76.8958 62.5 76.8958C62.9583 76.8958 63.7083 76.5194 64.1667 76.0595C64.9583 75.2651 65 74.7216 64.7917 49.7183L62.0833 47.0006H37.9167L35.2083 49.7183L35.0833 62.4708C35 74.7216 35.0417 75.2651 35.8333 76.0595C36.2917 76.5194 37.0417 76.8958 37.5 76.8958C37.9583 76.8958 38.7083 76.5194 39.1667 76.0595C39.9583 75.2651 40 74.6797 40 58.4987H43.3333V107H40V79.8226L38 80.0734C36.4583 80.2407 35.75 80.1152 34.6667 79.4463C33.9583 78.9445 32.9583 77.941 32.5 77.1884C31.7083 75.9341 31.6667 75.0979 31.6667 63.307C31.6667 56.3245 31.875 50.0528 32.0833 49.1748C32.3333 48.2967 33.2083 46.9169 34.1667 45.9553C35.0833 45.0354 36.4583 44.1156 37.1667 43.9065C37.9167 43.6556 44 43.5302 62.7917 43.6556ZM48.3333 83.5856H51.6667V107H48.3333V83.5856ZM18.125 15.0566C19.0417 15.0148 20.7083 15.3493 21.8333 15.7256C23.2222 16.2273 24.4722 17.1193 25.5833 18.4015C26.5417 19.4468 27.5417 21.0356 27.7917 21.9555C28.0833 22.8335 28.3333 24.6314 28.3333 25.8858C28.3333 27.1401 28.0833 28.938 27.7917 29.816C27.5417 30.7359 26.5417 32.3247 25.5833 33.37C24.4722 34.6522 23.2222 35.5442 21.8333 36.046C20.7083 36.4223 19.125 36.7568 18.3333 36.7568C17.5417 36.7568 16.125 36.5059 15.2083 36.255C14.2083 35.9205 12.7083 34.917 11.4583 33.6209C10.1667 32.3665 9.16667 30.8613 8.83333 29.8579C8.58333 28.938 8.33333 27.1401 8.33333 25.8858C8.33333 24.6314 8.58333 22.8335 8.83333 21.9137C9.16667 20.9102 10.1667 19.405 11.4583 18.1507C12.5833 16.9799 14.2083 15.8092 15 15.5583C15.7917 15.3075 17.2083 15.0984 18.125 15.0566ZM13.0417 20.8266C12.5417 21.5374 11.9583 22.8335 11.8333 23.6698C11.6667 24.5478 11.6667 26.1785 11.7917 27.3492C11.9167 28.4781 12.375 29.8997 12.8333 30.485C13.2917 31.0704 14.1667 31.9066 14.75 32.3665C15.5833 32.9937 16.5417 33.2028 18.3333 33.2028C20.1667 33.2028 21.0417 32.9937 21.9583 32.3247C22.5833 31.823 23.5 30.9031 23.9583 30.3178C24.625 29.3979 24.7917 28.5199 24.7917 25.8858C24.7917 23.2098 24.625 22.3736 23.9167 21.4119C23.4167 20.7848 22.5833 19.9067 22.0417 19.4886C21.5 19.0705 20.0833 18.6106 18.9583 18.527C17.7083 18.4015 16.2917 18.5688 15.4583 18.9451C14.6667 19.2378 13.5833 20.074 13.0417 20.8266ZM81.4583 15.0566C82.375 15.0148 84.0417 15.3493 85.1667 15.7256C86.5555 16.2273 87.8055 17.1193 88.9167 18.4015C89.875 19.4468 90.875 21.0356 91.125 21.9555C91.4167 22.8335 91.6667 24.6314 91.6667 25.8858C91.6667 27.1401 91.4167 28.938 91.125 29.816C90.875 30.7359 89.875 32.3247 88.9167 33.37C87.8055 34.6522 86.5555 35.5442 85.1667 36.046C84.0417 36.4223 82.4583 36.7568 81.6667 36.7568C80.875 36.7568 79.4583 36.5059 78.5417 36.255C77.5417 35.9205 76.0417 34.917 74.7917 33.6209C73.5 32.3665 72.5 30.8613 72.1667 29.8579C71.9167 28.938 71.6667 27.1401 71.6667 25.8858C71.6667 24.6314 71.9167 22.8335 72.1667 21.9137C72.5 20.9102 73.5 19.405 74.7917 18.1507C75.9167 16.9799 77.5417 15.8092 78.3333 15.5583C79.125 15.3075 80.5417 15.0984 81.4583 15.0566ZM76.375 20.8266C75.875 21.5374 75.2917 22.8335 75.1667 23.6698C75 24.5478 75 26.1785 75.125 27.3492C75.25 28.4781 75.7083 29.8997 76.1667 30.485C76.625 31.0704 77.5 31.9066 78.0833 32.3665C78.9167 32.9937 79.875 33.2028 81.6667 33.2028C83.5 33.2028 84.375 32.9937 85.2917 32.3247C85.9167 31.823 86.8333 30.9031 87.2917 30.3178C87.9583 29.3979 88.125 28.5199 88.125 25.8858C88.125 23.2098 87.9583 22.3736 87.25 21.4119C86.75 20.7848 85.9167 19.9067 85.375 19.4886C84.8333 19.0705 83.4167 18.6106 82.2917 18.527C81.0417 18.4015 79.625 18.5688 78.7917 18.9451C78 19.2378 76.9167 20.074 76.375 20.8266ZM49.7917 20.074C50.7083 20.0322 52.375 20.3667 53.5 20.743C54.8889 21.2447 56.1389 22.1367 57.25 23.4189C58.2083 24.4642 59.2083 26.053 59.4583 26.9729C59.75 27.8509 60 29.6488 60 30.9031C60 32.1575 59.75 33.9554 59.4583 34.8334C59.2083 35.7533 58.2083 37.3421 57.25 38.3874C56.1389 39.6696 54.8889 40.5616 53.5 41.0633C52.375 41.4396 50.7917 41.7741 50 41.7741C49.2083 41.7741 47.7917 41.5233 46.875 41.2724C45.875 40.9379 44.375 39.9344 43.125 38.6383C41.8333 37.3839 40.8333 35.8787 40.5 34.8752C40.25 33.9554 40 32.1575 40 30.9031C40 29.6488 40.25 27.8509 40.5 26.9311C40.8333 25.9276 41.8333 24.4224 43.125 23.168C44.25 21.9973 45.875 20.8266 46.6667 20.5757C47.4583 20.3248 48.875 20.1158 49.7917 20.074ZM44.7083 25.844C44.2083 26.5548 43.625 27.8509 43.5 28.6871C43.3333 29.5652 43.3333 31.1958 43.4583 32.3665C43.5833 33.4955 44.0417 34.917 44.5 35.5024C44.9583 36.0878 45.8333 36.924 46.4167 37.3839C47.25 38.0111 48.2083 38.2201 50 38.2201C51.8333 38.2201 52.7083 38.0111 53.625 37.3421C54.25 36.8404 55.1667 35.9205 55.625 35.3352C56.2917 34.4153 56.4583 33.5373 56.4583 30.9031C56.4583 28.2272 56.2917 27.391 55.5833 26.4293C55.0833 25.8021 54.25 24.9241 53.7083 24.506C53.1667 24.0879 51.75 23.628 50.625 23.5443C49.375 23.4189 47.9583 23.5861 47.125 23.9624C46.3333 24.2551 45.25 25.0914 44.7083 25.844ZM25 53.4813H28.3333V101.983H25V53.4813ZM71.6667 53.4813H75V101.983H71.6667V53.4813ZM16.6667 78.5682H20V101.983H16.6667V78.5682ZM80 78.5682H83.3333V101.983H80V78.5682Z" fill="#FF9D0A"/>
</svg>
