<svg width="32" height="32" viewBox="0 0 32 32" fill="none" xmlns="http://www.w3.org/2000/svg">
<path d="M9.04989 3.02295L10.947 2.45152C11.8106 2.19098 12.7395 2.25362 13.5604 2.62774C14.3812 3.00187 15.0378 3.66191 15.4076 4.48466L16.5882 7.11095C16.9063 7.81845 16.9949 8.6078 16.8416 9.36822C16.6883 10.1286 16.3007 10.822 15.7333 11.351L13.6705 13.2744C13.645 13.2982 13.6241 13.3265 13.6087 13.3578C13.3927 13.799 13.7207 14.9772 14.7482 16.7578C15.907 18.7647 16.8019 19.5578 17.2167 19.4355L19.9242 18.607C20.6656 18.3805 21.4594 18.3918 22.1941 18.6392C22.9289 18.8865 23.5678 19.3576 24.0213 19.9864L25.699 22.3098C26.2258 23.0393 26.4697 23.9353 26.3857 24.8311C26.3016 25.727 25.8952 26.5619 25.2419 27.1807L23.7985 28.5464C23.2965 29.0218 22.687 29.3688 22.0219 29.5576C21.3568 29.7465 20.6559 29.7717 19.979 29.631C15.9596 28.7944 12.3585 25.5578 9.14475 19.9921C5.92989 14.423 4.9276 9.68009 6.21903 5.77952C6.43521 5.1265 6.8054 4.53511 7.29832 4.05531C7.79124 3.57552 8.39127 3.22143 9.04989 3.02295ZM9.54703 4.66409C9.15184 4.78312 8.79111 4.99553 8.49532 5.28337C8.19953 5.5712 7.97737 5.92601 7.8476 6.31781C6.73446 9.67895 7.63618 13.9487 10.6305 19.135C13.6225 24.3178 16.8659 27.2321 20.3299 27.9521C20.7361 28.0364 21.1566 28.0212 21.5556 27.9077C21.9546 27.7943 22.3202 27.586 22.6213 27.3007L24.0636 25.9361C24.4155 25.603 24.6345 25.1535 24.6799 24.6711C24.7253 24.1886 24.594 23.7061 24.3105 23.3132L22.6327 20.9887C22.3886 20.6502 22.0446 20.3966 21.6491 20.2633C21.2535 20.1301 20.8262 20.124 20.427 20.2458L17.7127 21.0767C16.211 21.5235 14.7985 20.2721 13.2647 17.6138C11.9653 15.3647 11.515 13.7395 12.0705 12.6047C12.1779 12.3852 12.3242 12.1875 12.5025 12.0207L14.5653 10.0972C14.871 9.81242 15.0797 9.43903 15.1623 9.02949C15.245 8.61996 15.1972 8.19484 15.0259 7.81381L13.8442 5.18866C13.645 4.74553 13.2914 4.39003 12.8493 4.18856C12.4073 3.98708 11.907 3.9534 11.4419 4.09381L9.54703 4.66409Z" fill="#464646" fill-opacity="0.8"/>
</svg>
