<svg width="32" height="32" viewBox="0 0 32 32" fill="none" xmlns="http://www.w3.org/2000/svg">
<path d="M2.66797 15.9987C2.66797 10.9707 2.66797 8.45603 4.23064 6.8947C5.79197 5.33203 8.30664 5.33203 13.3346 5.33203H18.668C23.696 5.33203 26.2106 5.33203 27.772 6.8947C29.3346 8.45603 29.3346 10.9707 29.3346 15.9987C29.3346 21.0267 29.3346 23.5414 27.772 25.1027C26.2106 26.6654 23.696 26.6654 18.668 26.6654H13.3346C8.30664 26.6654 5.79197 26.6654 4.23064 25.1027C2.66797 23.5414 2.66797 21.0267 2.66797 15.9987Z" stroke="#FF9D0A" stroke-width="1.5"/>
<path d="M8 10.6641L10.8787 13.0641C13.328 15.1041 14.552 16.1241 16 16.1241C17.448 16.1241 18.6733 15.1041 21.1213 13.0627L24 10.6641" stroke="#FF9D0A" stroke-width="1.5" stroke-linecap="round"/>
</svg>
